<?xml version="1.0" encoding="utf-8"?>
<!-- Generator: Adobe Illustrator 21.0.2, SVG Export Plug-In . SVG Version: 6.00 Build 0)  -->
<svg version="1.1" id="Layer_1" xmlns="http://www.w3.org/2000/svg" xmlns:xlink="http://www.w3.org/1999/xlink" x="0px" y="0px"
	 viewBox="0 0 595.3 595.3" style="enable-background:new 0 0 595.3 595.3;" xml:space="preserve">
<style type="text/css">
	.st0{fill:#E1CD9F;}
</style>
<g>
	<path class="st0" d="M297.4,289.2c-4.9-0.3-9.7,3.7-10,8.7c-0.3,5.4,3.5,9.9,9,10.2c0,0,0,0,0,0c0.1,0,0.3,0,0.4,0
		c4.7-0.2,9.3-3.7,9.6-8.7C306.7,294,302.9,289.5,297.4,289.2z M296.9,305c-7.3-0.7-8.7-11.5-0.8-12.7
		C304.4,291.1,305.6,304.5,296.9,305z"/>
	<path class="st0" d="M360.4,359.6c-2.3-5.6-1.4-11.9-1.4-17.9c0-5.7-1-11.3-4-16.2c-1.2-1.9-2.7-3.7-4.5-5.2
		c2.9,0.2,5.9-0.1,8.7-0.8c11.2-2.8,15.7-15.8,26.4-18.9c1.2-0.4,1.8-2.3,0.4-2.9c-5.5-2.3-9.2-7.3-13.3-11.4
		c-3.9-4-8.4-7.1-13.9-8.7c-2.7-0.8-5.6-0.9-8.5-0.5c2.2-1.8,4.1-4,5.5-6.4c2.8-4.5,3.7-9.9,3.9-15.1c0.3-6.1-1-12.6,1.5-18.4
		c0.7-1.5-0.7-2.7-2.2-2c-9.5,5-21.2-0.8-31,4.1c-2.8,1.4-5.6,3.3-7.9,5.7c0.2-1.9,0.2-3.9-0.2-5.7c-1-5.7-3.9-10.3-7.7-14.5
		c-4.1-4.6-9.8-8.4-12.1-14.3c-0.6-1.5-2.7-1.3-3.2,0.2c-1.5,5-5.6,8.4-9.3,11.9c-3.6,3.4-7,7-9.1,11.6c-1.5,3.2-2.1,6.8-2,10.5
		c-1.3-1.4-2.8-2.6-4.3-3.7c-4.2-2.9-9.4-4.2-14.5-4.5c-6.5-0.3-13.6,1-19.7-1.7c-1.4-0.6-3,0.9-2.3,2.3c5,9.5-0.8,21.2,4.1,31
		c1.5,2.9,3.6,5.7,6.1,7.9c-2.1-0.2-4.3-0.1-6.4,0.3c-5.4,0.9-10,4.1-14,7.7c-4.6,4.1-8.3,9.7-14.3,12.1c-1.5,0.6-1.7,2.5,0,3
		c4.6,1.4,7.9,5.2,11.1,8.6c3.4,3.6,6.9,7,11.3,9.4c3,1.6,6.8,2.5,10.6,2.5c-2.4,2.5-4.4,5.5-5.5,8.3c-1.8,4.7-2.1,9.6-2,14.6
		c0.1,5.1,0.5,10.4-2.1,15c-0.6,1.2,0.5,2.7,1.8,2.2c10-4.1,21.3,0.8,31.4-3.9c2.9-1.3,5.5-3.2,7.6-5.6c-0.1,3.3,0.4,6.7,1.4,9.7
		c3.3,10.5,15.5,14.8,18.5,25.2c0.5,1.7,2.6,1.1,3.2-0.2c2.2-5.3,7.2-9,11.2-12.9c4.1-4,7.3-8.7,9-14.2c0.6-2,0.9-4.2,0.8-6.4
		c2.9,3.1,6.7,5.4,10.5,6.7c8.9,2.9,19.4-1.2,27.8,3.5C359.1,362.1,361,360.9,360.4,359.6z M343.3,347c-2.8-2.9-4.6-6.3-6.4-9.7
		c0.9,0.5,1.9,1,2.9,1.4c1.5,0.9,2.9,1.8,4.3,2.8c0.7,0.5,1.4,1.1,2,1.6c0.5,0.5,0.9,1,1.4,1.5C346.5,348,345.1,348.8,343.3,347z
		 M300.2,360.4c0.3,1.3,0.5,2.6,0.6,3.9c0.3,3-4.3,3.6-4.9,1c0.1-3.8,1.1-7.5,2.1-11.1c0.4,1.5,1,3,1.7,4.3
		C299.9,359,300.1,359.7,300.2,360.4z M302.9,356.9c-0.1-0.1-0.1-0.3-0.2-0.4c-0.8-2.8-1.7-5.5-2.3-8.3c1.8,1.8,3.3,3.9,4.3,6.4
		c0.5,1.2,0.8,2.7,0.5,4C304.9,359.5,303.1,357.1,302.9,356.9z M298.9,342.2c-5-0.4-4.9-7-4.5-11c3.1,0.2,6.1,0,9.1-0.6
		C304.5,334.8,305.2,342.7,298.9,342.2z M261.2,343.9c-0.6,1.2-2.6,4.2-2.9,1.3c-0.2-2.7,1.8-5.6,3.1-7.8c0.4-0.7,0.9-1.3,1.3-2
		C263,338.3,262.5,341.3,261.2,343.9z M247.5,344.1c2.6-2.5,5.6-4.2,8.6-5.8c0.2-0.1,0.5-0.3,0.7-0.4c0.3-0.1,0.5-0.3,0.8-0.4
		c-0.3,0.5-0.6,1-0.9,1.6c-0.9,1.6-1.8,3.2-2.8,4.8c-0.5,0.9-1.1,1.7-1.6,2.5C249.3,350.8,244.3,348.1,247.5,344.1z M250.2,334.4
		c2.7-1.9,6.2-2.4,9.5-2.2c-2.3,1.7-4.8,3.2-7.4,4.2c-1,0.4-1.9,0.6-2.9,0.4C247.5,336.4,249.6,334.8,250.2,334.4z M264.5,329.8
		c-2.2-4,2.2-9,5.4-11.8c2,2.6,4.3,4.9,7,6.9c-2,2.5-7.7,9.1-11.2,6.4C265.7,330.5,265.2,330,264.5,329.8z M263.6,304.4
		c0.8,3.8,2.4,7.5,4.5,10.9c-4,2.2-10.2,5-12.4-0.7C253.6,309.2,259.3,305.7,263.6,304.4z M231.6,295.1c4.1,0.1,7.9,1.2,11.7,2.2
		c-1.6,0.4-3.2,1-4.5,1.8c-0.6,0.2-1.3,0.3-1.9,0.5c-1.3,0.3-2.6,0.5-3.9,0.5C230,300.4,225.5,295.8,231.6,295.1z M242.1,290
		c2.8,0.9,5.2,2.7,7.2,4.9c-3.5-0.5-7.3-1.4-9.8-3.7C236.9,289.1,240.7,289.6,242.1,290z M240.2,302.1c0.1-0.1,0.2-0.1,0.3-0.2
		c3-0.8,5.8-1.9,8.8-2.5c-2,2.2-4.4,3.9-7.3,4.8c-1,0.3-2.2,0.6-3.2,0.2C237.6,304,239.9,302.3,240.2,302.1z M256.3,290.3
		c2-1.6,5-0.8,7.2-0.2c-0.7,3.3-0.9,6.6-0.6,9.9c-2.7-0.2-5-0.8-7.1-2.7C253.6,295.4,253.9,292.3,256.3,290.3z M254.5,248.5
		c2.8,2.9,4.6,6.3,6.4,9.7c-0.9-0.5-1.9-1-2.9-1.4c-1.5-0.9-2.9-1.8-4.3-2.8c-0.7-0.5-1.4-1.1-2-1.6c-0.5-0.5-0.9-1-1.4-1.5
		C251.3,247.4,252.7,246.6,254.5,248.5z M297.1,235.6c-0.3-1.3-0.5-2.6-0.6-3.9c-0.3-3,4.3-3.6,4.9-1c-0.1,3.8-1.1,7.5-2.1,11.1
		c-0.4-1.5-1-3-1.7-4.3C297.4,236.9,297.3,236.3,297.1,235.6z M301.7,248.2c0.5-3.6,1.4-7.6,3.6-10.2c2.1-2.4,1.6,1.7,1.3,2.9
		C305.8,243.8,303.9,246.3,301.7,248.2z M294.4,239.1c0.1,0.1,0.1,0.3,0.2,0.4c0.8,2.8,1.7,5.5,2.3,8.3c-1.8-1.8-3.3-3.9-4.3-6.4
		c-0.5-1.2-0.8-2.7-0.5-4C292.4,236.5,294.3,238.8,294.4,239.1z M300.1,254.1c2.4-3,4.5,0.4,5.2,2.5c0.9,2.5,0.1,5.1-1.1,7.3
		c-2.5-0.5-5-0.8-7.5-0.7C297.2,260,298,256.8,300.1,254.1z M316.6,256.9c3.7-0.6,3.9,4.5,3.3,6.8c-0.3,1.2-1,2.4-1.8,3.4
		c-0.6,0.7-1.2,1.4-1.8,2.1c-1.8-1.3-3.8-2.4-5.8-3.3c-0.6-0.3-1.2-0.5-1.8-0.8C309.7,261.3,312.3,257.6,316.6,256.9z M330.6,266
		c2.8,2,0.3,6.2-1.3,7.9c-1.3,1.4-3.1,2.5-4.8,3.5c-1.6-2.3-3.6-4.4-5.8-6.2c0.5-0.6,1.1-1.3,1.6-2
		C323.2,266.3,327.1,263.5,330.6,266z M335.5,252.6c0.6-1.2,2.6-4.2,2.9-1.3c0.1,1.2-0.3,2.5-0.8,3.7c-0.9,1.5-1.7,3.1-2.6,4.5
		c-0.3,0.5-0.7,1.1-1.1,1.6C333.8,258.2,334.2,255.3,335.5,252.6z M339.9,257.3c1-1.8,2.1-3.6,3.2-5.3c0.6-0.9,1.3-1.8,2.1-2.7
		c2-2.4,6.9-0.6,4,3.1c-3.1,2.9-6.8,4.8-10.4,6.8c0.2-0.3,0.3-0.6,0.5-0.9C339.6,258,339.8,257.6,339.9,257.3
		C339.9,257.3,339.9,257.3,339.9,257.3z M339.9,281.4c-0.2,0.3-0.3,0.7-0.3,1c-0.9,2-3.6,3.7-5,4.3c-1.6,0.6-3.3,0.8-4.9,0.9
		c-0.8-2.7-2-5.3-3.4-7.7c3.8-2,8.5-4.2,12.4-1.2C339.7,279.7,340,280.6,339.9,281.4z M365.7,301.4c-4.1-0.1-7.9-1.2-11.7-2.2
		c1.6-0.4,3.2-1,4.5-1.8c0.6-0.2,1.3-0.3,1.9-0.5c1.3-0.3,2.6-0.5,3.9-0.5C367.3,296,371.9,300.6,365.7,301.4z M355.3,306.4
		c-2.8-0.9-5.2-2.7-7.2-4.9c3.5,0.5,7.3,1.4,9.8,3.7C360.5,307.4,356.7,306.9,355.3,306.4z M357.2,294.4c-0.1,0.1-0.2,0.1-0.3,0.2
		c-3,0.8-5.8,1.9-8.8,2.5c2-2.2,4.4-3.9,7.3-4.8c1-0.3,2.2-0.6,3.2-0.2C359.8,292.5,357.5,294.2,357.2,294.4z M337.9,301.6
		c-2.2,0.7-4.7,0.3-7-0.1c0.4-3.3,0.3-6.5-0.2-9.7c4.4-1.3,10.6-1.8,12.5,3.5C344.3,298.7,340.2,300.9,337.9,301.6z M302,327.8
		c-0.3-2.3-0.5-4.7-0.8-7c1.2-0.2,2.3-0.5,3.4-0.8c0.9,2.2,1.8,4.3,2.8,6.5C305.6,327,303.8,327.5,302,327.8z M326.2,307.6
		c-2.3-1-4.6-2-6.9-2.9c0.3-0.9,0.5-1.8,0.6-2.8c2.4,0.3,4.9,0.7,7.3,1C327.1,304.5,326.7,306,326.2,307.6z M310.7,312.9
		c-0.5,0.1-1,0.5-1.2,1c-3.4,2.5-7.5,4-11.9,4.1c-10.7-0.4-18.9-8.9-19.1-19.6c-0.2-10.8,9.1-18.8,19.4-19
		c10.7-0.2,18.9,9.4,19.1,19.6c0.1,3.8-1.1,7.3-3,10.2c-0.3,0.2-0.6,0.6-0.7,1C312.5,311.2,311.6,312.1,310.7,312.9z M268.9,309.7
		c2.5-1.1,5.1-2.2,7.6-3.2c0.4,1.1,0.9,2.2,1.5,3.2c-2.2,1.7-4.3,3.3-6.4,5C270.5,313.1,269.6,311.4,268.9,309.7z M266.2,298.2
		c-0.1-1.7,0-3.4,0.2-5.1c3.1,0.4,6.2,0.9,9.3,1.3c-0.2,0.9-0.3,1.8-0.4,2.7C272.3,297.5,269.3,297.8,266.2,298.2z M278.9,286
		c-3-1.3-6-2.6-9-3.9c0.8-1.5,1.7-2.9,2.7-4.1c2.6,2,5.2,4.1,7.8,6.1c0.1,0.1,0.2,0.1,0.3,0.2c-0.5,0.6-1,1.3-1.4,1.9
		C279.2,286.2,279,286.1,278.9,286z M324.7,284c-2.5,1.1-5,2.1-7.5,3.2c-0.3-0.5-0.6-1-1-1.5c2.2-1.7,4.5-3.3,6.7-5
		C323.5,281.7,324.2,282.8,324.7,284z M320.2,296.1c2.5-0.3,4.9-0.6,7.4-0.9c0.1,1.5,0.1,3.1,0,4.7c-2.5-0.3-4.9-0.7-7.4-1
		c0,0,0,0,0-0.1C320.3,297.8,320.3,296.9,320.2,296.1z M327.2,292.2c-2.5,0.3-5,0.6-7.5,0.9c-0.3-1.1-0.6-2.2-1.1-3.2
		c2.4-1,4.8-2,7.2-3.1C326.5,288.5,326.9,290.3,327.2,292.2z M314.2,283.3c-0.6-0.6-1.2-1.1-1.8-1.6c1.9-2.3,3.7-4.7,5.6-7
		c1.1,1.1,2.2,2.2,3.1,3.4C318.8,279.9,316.5,281.6,314.2,283.3z M315.7,272.7c-1.9,2.4-3.8,4.8-5.8,7.2c-0.7-0.4-1.4-0.8-2.1-1.2
		c1.3-2.9,2.5-5.7,3.8-8.6C313.1,270.9,314.5,271.8,315.7,272.7z M305,277.6c-0.8-0.3-1.6-0.5-2.4-0.7c0.5-3.2,1-6.3,1.5-9.5
		c1.6,0.4,3.2,0.9,4.8,1.5c0,0,0,0,0,0C307.6,271.7,306.3,274.6,305,277.6z M299.6,276.3c-0.5-0.1-1.1-0.1-1.6-0.1
		c-0.3,0-0.6,0-0.9,0c-0.3-3.2-0.7-6.4-1-9.6c1.7-0.1,3.3,0,5,0.2C300.6,270,300.1,273.1,299.6,276.3z M293,266.8
		c0.3,3.2,0.7,6.4,1,9.6c-1,0.2-2.1,0.4-3,0.7c-1.2-3-2.5-6.1-3.7-9.1C289.1,267.5,291.1,267.1,293,266.8z M284.4,269.1
		C284.4,269.2,284.4,269.2,284.4,269.1c1.3,3.1,2.5,6.1,3.8,9.2c-0.5,0.2-0.9,0.5-1.3,0.7c-0.1-0.2-0.1-0.4-0.3-0.5
		c-1.9-2.5-3.9-5-5.8-7.5C281.9,270.3,283.2,269.7,284.4,269.1z M278.2,272.6c2,2.6,4,5.2,6,7.7c0.1,0.1,0.2,0.2,0.3,0.3
		c-0.6,0.5-1.2,1-1.7,1.5c-0.1-0.2-0.2-0.3-0.4-0.5c-2.5-2-5.1-4-7.6-6C275.8,274.6,277,273.6,278.2,272.6z M268.1,286.1
		c0.1-0.4,0.3-0.8,0.5-1.2c3,1.3,6.1,2.6,9.1,3.9c0,0,0,0,0,0c-0.4,0.8-0.8,1.7-1.1,2.6c0,0-0.1,0-0.1,0c-3.2-0.5-6.4-0.9-9.6-1.4
		C267.3,288.7,267.7,287.4,268.1,286.1z M275.3,300.2c0,1.1,0.2,2.3,0.4,3.3c-2.6,1.1-5.3,2.2-7.9,3.3c-0.6-1.8-1-3.7-1.3-5.7
		C269.4,300.9,272.3,300.5,275.3,300.2z M279.8,312.2c0.6,0.7,1.2,1.4,1.8,2c-1.6,2.1-3.3,4.2-4.9,6.2c-1.2-1.1-2.3-2.2-3.3-3.4
		C275.6,315.5,277.7,313.9,279.8,312.2z M279.1,322.4c1.6-2.1,3.2-4.1,4.8-6.2c0.8,0.6,1.7,1.2,2.6,1.7c-1,2.4-2.1,4.8-3.1,7.1
		C281.9,324.3,280.4,323.4,279.1,322.4z M289.2,319.3c1,0.4,2,0.7,3,1c-0.4,2.5-0.7,4.9-1,7.4c-1.7-0.3-3.3-0.8-5-1.3
		C287.2,324,288.2,321.6,289.2,319.3z M294.2,328.1c0.3-2.4,0.7-4.8,1-7.1c0.8,0.1,1.6,0.2,2.4,0.2c0.1,0,0.3,0,0.4,0
		c0.1,0,0.1,0,0.2,0c0.3,2.3,0.5,4.7,0.8,7C297.4,328.2,295.8,328.2,294.2,328.1z M310.2,325.3c-0.9-2.2-1.9-4.4-2.8-6.6
		c1.2-0.6,2.3-1.2,3.3-2c1.5,1.9,2.9,3.8,4.4,5.7C313.6,323.6,311.9,324.5,310.2,325.3z M317.5,320.6c-1.5-1.9-3-3.9-4.5-5.8
		c0.7-0.7,1.4-1.4,2-2.1c1.9,1.5,3.9,3,5.8,4.5C319.9,318.5,318.7,319.6,317.5,320.6z M322.7,314.8c-2-1.5-3.9-3.1-5.9-4.6
		c0.5-0.9,1-1.8,1.5-2.7c2.3,1,4.5,2,6.8,2.9C324.4,312,323.6,313.4,322.7,314.8z M346.5,262.1c-2.7,1.9-6.2,2.4-9.5,2.2
		c2.3-1.7,4.8-3.2,7.4-4.2c1-0.4,1.9-0.6,2.9-0.4C349.2,260.1,347.1,261.7,346.5,262.1z M283.2,266.4c-0.5-4.6,0.1-14.3,6.4-10.2
		c2.2,1.4,2.9,4.6,3.4,7.3C289.6,264,286.3,264.9,283.2,266.4z M280,268c-2.7,1.6-5.1,3.5-7.3,5.7c-2.6-3.1-5.7-8-1.8-10.9
		C275.1,259.7,278.8,264.4,280,268z M266.6,260.3c-0.1-0.2-0.3-0.4-0.4-0.6c-1.5-2.1-2.8-4.2-3.7-6.6c-0.3-0.9-0.6-2-0.4-3
		c0.3-1.7,1.8,0.5,2.2,1C266.1,253.7,266.7,257.1,266.6,260.3z M253.5,259.2c1.1-0.1,2.2,0.2,3.4,0.7c1.7,1,3.5,2,5.1,3
		c0.5,0.3,0.9,0.6,1.4,0.9c-2.9,0.1-5.7-0.4-8.3-1.7C254.2,261.7,250.8,259.4,253.5,259.2z M265.6,284c-0.4,1-0.8,1.9-1.1,2.9
		c-3.1-1.9-6.1-4.7-5.2-8.7c0.9-3.9,7.7-2.7,10.3-0.9C268,279.3,266.7,281.6,265.6,284z M280.8,327.4c0.9,0.5,1.7,0.9,2.6,1.3
		c2.5,1,5.1,1.7,7.7,2.1c-0.8,4.2-2.4,9.2-7.2,9.7C278.2,341.2,279.2,331.2,280.8,327.4z M306.8,329.8c2.6-0.8,5.1-1.9,7.4-3.2
		c0.3,0.8,0.8,1.6,1.3,2.4c0.3,0.8,0.6,1.7,0.8,2.6c0.4,1.8,0.9,5.8-0.8,7.1c-1.5,1.1-4.4-1.4-5.3-2.3
		C308.2,334.6,307.3,332.3,306.8,329.8z M317.7,326c-0.1-0.2-0.2-0.3-0.3-0.5c-0.1-0.3-0.3-0.5-0.4-0.7c2.7-2,5.2-4.3,7.3-7.1
		c3.4,2.8,5.6,6.1,4.7,10.8C327.5,335.7,320.3,330.1,317.7,326z M331.2,335.1c0.1,0.2,0.3,0.4,0.4,0.6c1.5,2,2.8,4.2,3.7,6.6
		c0.3,0.9,0.6,2,0.4,3c-0.3,1.7-1.8-0.5-2.2-1C331.7,341.7,331.1,338.3,331.2,335.1z M344.3,336.2c-1.1,0.1-2.2-0.2-3.4-0.7
		c-1.7-1-3.5-1.9-5.1-3c-0.5-0.3-0.9-0.6-1.4-0.9c2.9-0.1,5.7,0.4,8.3,1.7C343.7,333.7,347,336,344.3,336.2z M326.2,314.8
		c0.8-1.3,1.5-2.7,2.2-4.1c0.9-1.9,1.5-3.9,2-5.8c3.6,1.3,7.4,3.2,8.6,7.1c1.1,3.5-4,4.7-6.3,4.9C330.3,317,328.1,316,326.2,314.8z
		 M359.9,281.4c9.2,3.2,13.7,12.8,21.6,17.7c-6.9,3.6-11.3,11-17.8,15.3c-6.3,4.1-16,3.8-21.8,0.2c1.5-4.2-1.2-7.5-4.7-9.8
		c2.7-0.4,5.1-1.4,6.9-3.1c2.7,3.8,6.4,6.7,11,8c2.8,0.8,6.9,0.3,7.1-3.4c0-0.9-0.2-1.6-0.6-2.3c1.2,0.2,2.4,0.4,3.6,0.4
		c0.2,0,0.4,0.1,0.6,0c0.3,0,0.5,0,0.7-0.1c5.3-1.1,7.8-6.8,2.6-10.4c-2-1.3-4.7-1.1-7.1-0.6c0.1-0.2,0.1-0.4,0.2-0.6
		c0.7-3.5-3.1-4.3-5.7-4c-3.8,0.5-7.2,2.7-10,5.5c-0.6-2.3-2.7-4-4.6-5.1c-0.9-0.6-1.9-0.9-3-1.2c0.1-0.1,0.2-0.1,0.3-0.2
		c1.4-1,2.9-2.7,3.6-4.6C347.7,279.9,354.3,279.4,359.9,281.4z M334.7,240.7c7.5-1.4,15.4,0.8,22.7-1.3c-2,7.8,0,16.4-2,24.3
		c-1.6,6.2-7.1,13.1-12.7,14.1c-0.2,0-0.4,0.1-0.6,0.2c-1.9-3.5-5.6-4-9.4-3.3c1.7-2.1,2.8-4.6,2.3-7.3c4.8,0.6,9.8-0.2,13.8-3
		c2.3-1.7,4.1-5,1.1-7c-0.3-0.2-0.7-0.4-1-0.5c0.8-0.6,1.6-1.3,2.3-2c0.1-0.1,0.3-0.2,0.4-0.4c0.2-0.2,0.3-0.4,0.4-0.6
		c2.9-4.6,0.7-12.1-5.8-9.2c-2,0.9-3.6,2.7-4.9,4.6c-0.2-0.4-0.4-0.7-0.6-1c-2.4-2.9-5.6-0.3-7.2,1.9c-2.4,3.5-3.1,8.1-2.7,12.3
		c-1.5-0.4-3.1-0.4-4.5-0.2c-1,0.2-1.9,0.5-2.8,0.9c0.1-0.4,0.1-0.8,0.1-1.2c0.1-3-1-6.8-4.3-7.8c-0.4-0.1-0.7-0.2-1.1-0.2
		C320.7,247,327.9,242,334.7,240.7z M284.8,230.3c4.3-5.5,10.6-9.3,14-15.3c4.7,7.8,13.6,12.6,17.1,21.3c2.3,5.7,1.4,13-2.2,18.1
		c-1.9,0.8-3.7,2.3-5,4.1c0.1-3.7-1.1-7.2-4.4-8.5c2.6-2.4,4.6-5.4,5.6-8.9c0.8-2.9,0.4-6.7-3.3-6.8c-0.9,0-1.7,0.2-2.4,0.7
		c0.3-1.5,0.5-3,0.5-4.5c0-0.2,0-0.3-0.1-0.5c-0.8-6.3-7.4-7.1-10.7-2.2c-1.1,1.7-1,4.2-0.6,6.5c-0.1,0-0.2-0.1-0.3-0.1
		c-3.3-0.6-4.6,3-4.2,5.6c0.7,5.2,4.2,9.6,8.4,12.6c-1.1,1.5-2,3.5-2.6,5.6c-1.6-3.6-4.2-6.3-8.9-5.4c-1.3,0.2-2.4,0.8-3.2,1.6
		c-0.4-1.1-0.9-2.2-1.5-3.3C278.8,243.9,280.4,236,284.8,230.3z M241.8,263.5c-2.4-8,0.5-16.5-1.7-24.4c8.8,2.1,18.5-0.7,27.2,3
		c4.4,1.9,8.3,5.7,10.7,10.1c0.4,1.3,1,2.5,1.6,3.6c0.2,0.5,0.3,1,0.5,1.5c0.1,0.2,0.2,0.4,0.3,0.5c-0.4,1.1-0.6,2.4-0.7,3.6
		c-2.6-2.3-6.1-3.1-9.9-1.4c0.1-3.9-0.8-7.8-3.1-11.1c-1.6-2.3-5.1-3.9-7-1c-0.2,0.3-0.4,0.6-0.5,0.9c-0.7-0.8-1.3-1.6-2.1-2.4
		c-0.1-0.1-0.2-0.2-0.3-0.4c-0.1-0.1-0.3-0.2-0.4-0.3c-4.8-3.4-10.9-1.1-9.6,5.5c0.4,2.1,2.5,3.9,4.6,5.3c-0.4,0.2-0.7,0.4-1,0.7
		c-2.8,2.3-0.5,5.5,1.8,7c4,2.6,8.9,3.1,13.5,2.4c0.2,2.1,1.2,4.2,2.3,6.2c-3.7-0.9-8.2-0.1-10.7,2.4c-0.9,0.9-1.4,1.8-1.7,2.8
		C249.1,276,243.8,270,241.8,263.5z M230.3,310.8c-5.1-4.3-8.9-10.2-14.7-13.3c7.8-4.7,12.6-13.6,21.3-17.1c6-2.4,14-1.1,19,2.3
		c0.2,0.1,0.4,0.2,0.6,0.3c0.6,1.3,1.6,2.5,2.7,3.7c-3.6,0.3-7,1.8-7.9,5.6c-2.4-2.5-5.4-4.4-8.8-5.4c-2.8-0.8-6.9-0.3-7,3.4
		c0,0.9,0.2,1.6,0.6,2.3c-1.2-0.2-2.4-0.4-3.7-0.4c-0.2,0-0.4-0.1-0.6,0c-0.3,0-0.5,0-0.7,0.1c-5.3,1.1-7.8,6.8-2.6,10.4
		c2,1.3,4.7,1.1,7.1,0.6c-0.1,0.2-0.1,0.4-0.2,0.6c-0.7,3.5,3.1,4.3,5.7,4c5-0.7,9.3-4.2,12.2-8.1c1.6,1.6,3.9,2.7,6.3,3.2
		c-4.4,2.3-7.8,6.1-7.3,11.4C246.1,319.6,235.6,315.3,230.3,310.8z M263.1,354.3c-7.9,2.2-16.3-0.4-24.1,1.4
		c1.9-6,0.9-12.6,1.2-18.8c0.4-7.1,4.9-17.8,13-19.1c2,3.6,6.3,3.5,10.4,2.4c-0.9,1.2-1.6,2.5-2.2,3.9c-0.5,1.3-0.8,3.2-0.5,4.9
		c-4.5-0.4-9.2,0.4-12.9,3.1c-2.3,1.7-4.1,5-1.1,7c0.3,0.2,0.7,0.4,1,0.5c-0.8,0.6-1.6,1.3-2.3,2c-0.1,0.1-0.3,0.2-0.4,0.4
		c-0.2,0.2-0.3,0.4-0.4,0.6c-3.2,4.6-1.5,10.3,5,9.2c2.6-0.4,4.3-2.5,5.6-4.7c0.2,0.4,0.4,0.8,0.7,1.1c2.4,2.9,5.6,0.3,7.2-1.9
		c2.3-3.3,3-7.6,2.7-11.6c3.7,0.7,7.5-2,10.4-4.9c-0.7,3.3-0.5,7,1,9.8c-0.1,0.1-0.1,0.3-0.2,0.5C276,347.5,270.1,352.3,263.1,354.3
		z M314,361.6c-3.8,7.8-12,12.1-16.6,19.2c-3.4-6.6-10.3-10.9-14.6-16.9c-3.9-5.4-5.6-14.6-1.9-20.8c0.2,0.1,0.4,0.2,0.6,0.3
		c4.5,1.8,7.9-1.1,10.1-4.9c0.5,2.4,1.6,4.6,3.3,5.9c-3.5,2.6-6.3,6.2-7.5,10.5c-0.8,2.9-0.4,6.7,3.3,6.8c0.9,0,1.7-0.2,2.4-0.7
		c-0.3,1.5-0.5,3-0.5,4.5c0,0.2,0,0.4,0.1,0.5c0.9,6.3,7.3,7.1,10.7,2.1c1.1-1.7,1-4.2,0.6-6.5c0.1,0,0.2,0.1,0.3,0.1
		c3.3,0.6,4.6-3,4.2-5.6c-0.6-4.5-3.4-8.5-6.8-11.4c3.2-1.2,4.9-3.8,5.5-6.9c0.5,0.6,1,1.1,1.7,1.6c1.3,1.1,3,2,4.8,2.3
		c0,0.2,0.1,0.4,0.2,0.6C317.6,348.2,316.9,355.8,314,361.6z M295.6,347.7c-0.5,3.6-1.4,7.6-3.6,10.2c-2.1,2.4-1.6-1.7-1.3-2.9
		C291.5,352.2,293.4,349.7,295.6,347.7z M335.9,356c-8.1-0.9-16.4-6.9-18.3-15.1c2.1-1.7,2.4-4.9,2.3-7.6c2.5,1.6,5.4,2.3,8.1,1.1
		c-0.3,4.3,0.5,8.6,3.1,12.2c1.6,2.3,5.1,3.9,7,1c0.2-0.3,0.4-0.6,0.5-0.9c0.7,0.8,1.3,1.6,2.1,2.4c0.1,0.1,0.2,0.2,0.3,0.4
		c0.1,0.1,0.3,0.2,0.4,0.3c4.8,3.4,10.9,1.1,9.6-5.5c-0.4-2.1-2.5-3.9-4.6-5.3c0.4-0.2,0.7-0.4,1-0.7c2.8-2.3,0.5-5.5-1.8-7
		c-4-2.5-8.8-3.1-13.4-2.4c0.3-1.2,0.3-2.5,0.3-3.6c0-2-0.7-3.8-1.7-5.4c2.8,0.4,5.8,0.1,8-1.3c0.1,0.1,0.3,0.1,0.5,0.2
		c6.1,1,11.3,5.4,14.1,10.7c4.7,8.7,0.9,18.9,2.9,28C349.8,355.3,342.5,356.7,335.9,356z"/>
	<path class="st0" d="M542.5,293c-1.2,0.2-2.4,0.5-3.6,0.8c8.1-8.3,1.6-22.9-10.1-21.3c-4.2,0.6-8.4,3.6-8.8,8.1
		c-0.5,5.2,2.5,10.1,8,10.4c3.9,0.2,7.8-3.5,7.1-7.4c-1-6.1-8.4-3.7-5.7,0.7c0.6,1,1.8,0.8,2.5,0.1c0.1,0.6-0.1,1.3-0.4,1.8
		c-0.7,1.2-2.2,1.6-3.4,1.7c-4,0.2-5.4-5.3-4.5-8.3c2.1-7.2,13-3.8,15,1.5c5.5,14.1-14.7,17.2-23.7,16.8c-0.2-4.2-2.9-7.7-7.2-8.9
		c-3.2-0.9-6.4-0.7-9.2,0.5c1.4-4.1,1.6-8.6-1.8-11.8c-3.4-3.3-8-2-12,0.4c1.7-4.2,2.3-8.8-1.4-11.8c-3.2-2.6-7.3-1.4-10.9,0.8
		c1.5-4.1,1.8-8.5-1.7-11.5c-4.2-3.6-9.7-1-14,2.5c1.1-4.9,0.5-10-5.1-11.5c-5.3-1.4-9.9,1.4-12.9,5.4c-1.1-2.6-3.5-4.4-6.9-4.6
		c-5.6-0.3-10.5,2.8-13.8,7c-0.3-1.2-0.6-2.5-1-3.7c-0.7-2.1-1.6-4-2.7-5.9c4.7,0.4,9.3-1.1,12.6-4.8c2.5-2.8,2.8-6.3,1.5-9.2
		c4.7,0.5,9.5-0.9,12.5-4.8c3.4-4.5,1.1-8.4-2.5-11c4.8-0.6,9.5-2.6,10.8-7.6c1.1-4.3-1.6-7.4-5.3-9.4c3.5-1,6.5-3.1,7.4-7.1
		c1.1-4.8-2-8-6-9.9c4.1-1.2,7.6-3.5,8.2-8.1c0.6-4.6-3.2-7.8-7.4-9.8c3-1.3,5.5-3.6,7-6.7c1.5-3.1,1.3-7-0.5-9.9
		c7.2-7.8,21.8-17.5,29.1-4.7c3.3,5.7-2.5,13-8.7,11.8c-3.4-0.6-6.1-5.4-4.6-8.5c0.6-1.3,2.1-1.9,3.4-2c0.8-0.1,1.5,0.3,2.2,0.8
		c-0.1,0,0,0,0.1,0.1c-0.8,0.2-1.6,1-1.3,2c1.1,4.8,7.8,1.5,4.7-3.3c-2.4-3.8-7.5-3.2-10.5-0.7c-4.2,3.4-2,9.4,1.1,12.6
		c3.3,3.4,8.7,2.6,12.4,0.3c10.3-6.5,4.1-20.8-6.5-22.5c-0.6-0.1-1.2-0.1-1.8-0.2c1.5-0.8,2.9-1.7,4.3-2.6
		c4.2-2.8,11.4-9.7,6.5-15.1c-4.7-5.3-12.1,0.7-15.2,4.8c-1.1,1.5-2.1,3-3.1,4.6c-0.3-10.4-13.2-16.4-21.1-9.1
		c-3,2.8-4.8,7.9-2.8,11.7c2.5,4.8,9.1,7.3,13.6,3.7c3.3-2.6,4-8.4,0.1-10.8c-4.9-3-8.5,3.3-3.4,4.6c1.1,0.3,1.9-0.6,2-1.5
		c0,0,0,0,0,0c0.9,0.7,0.9,2,0.8,3c-0.4,2.4-2.8,3.5-5,3.2c-3.9-0.5-6.2-4.4-5.3-7.9c0.7-2.9,3.2-5.1,6-6.1
		c4.1-1.4,8.2,1.5,10.4,4.8c5.5,8-3.5,19-9.6,24.5c-0.3-0.2-0.6-0.4-0.9-0.6c-6.8-3.9-13.4,0.6-16.1,6.9c-1.8-3.9-4.9-7-9.4-7.2
		c-4.8-0.2-7.3,4-8.6,8.5c-1.7-3.9-4.5-7.3-9-7.1c-4.3,0.2-6.4,3.9-7.5,8c-1.8-3.9-4.7-7-9.3-6.6c-5.5,0.5-7.6,6-8.3,11.3
		c-2.7-4-6.6-6.8-11.5-4.2c-4.9,2.6-6.3,7.9-5.6,13c-2.5-1-5.4-0.6-7.9,1.6c-4.5,3.9-5.9,9.9-4.9,15.6c-1.4-0.9-2.9-1.7-4.5-2.5
		c-2-0.9-4-1.5-6-2c3.7-3,6.1-7.4,5.8-12.4c-0.3-3.8-2.5-6.5-5.6-7.6c3.8-2.9,6.3-7.5,5.6-12.6c-0.7-5.4-5.3-6.3-9.8-5.5
		c3.2-3.9,5.3-8.9,2.3-13.3c-2.4-3.6-6.5-3.7-10.4-2.6c2-3.4,2.7-7.2,0-10.8c-2.9-3.7-7.1-3.7-11-2.2c2.2-3.8,3.3-8.2,0.2-11.6
		c-3.3-3.5-8.1-3.1-12.4-1.6c2.7-6.7,0.4-15-7.7-16.5c-0.3-8.5,1.4-21.9,11.1-23.7c7.4-1.4,13.3,4.5,10.8,11.8
		c-1.2,3.4-4.3,4.5-7.6,3.9c-2.6-0.5-4.4-2.4-4.3-5c0-1.7,3-4.7,5-4c-1.5-0.5-3,2-1.3,3c4.1,2.5,6.9-4.4,1.7-5.4
		c-4.9-0.9-9.1,3-8.6,8c0.6,5.4,7,7.4,11.5,6.5c4.7-0.9,7.1-6,7.4-10.3c0.9-12.1-14.6-14.7-22.1-8.1c2.7-9.2,3.7-19.9-5.8-20.2
		c-7.4-0.2-7.2,11-6.5,15.7c0.2,1.2,0.4,2.5,0.7,3.7c-4.2-3.7-10.6-3.8-15.4-1.5c-4.7,2.2-6.4,7.8-5.7,12.5c1.4,10.5,18,11,18.5,0.2
		c0.2-4.2-3.5-7.5-7.6-6.9c-5.9,0.9-4,8.3,0.7,5.5c1.1-0.7,1-1.8,0.3-2.5c0.2,0,0.4,0,0.4,0c0.7,0.1,1.2,0.5,1.7,0.9
		c1,0.9,1.3,2.6,1.1,3.9c-0.6,3.8-5.9,4.7-8.8,3.2c-6.5-3.4-2.9-13.3,2.8-15c13.2-4,16.3,14,16,23.7c-3.5,0.8-6.1,3.8-7.4,7.2
		c-1.2,3-0.9,6.1,0.3,8.9c-3.8-1.2-7.9-1.2-11.2,1.6c-3.9,3.2-2.6,8-0.2,12.2c-3.9-1.5-8-1.8-11.2,1.2c-3.3,3.1-2.1,7.4,0.2,11.1
		c-4-1.4-8.3-1.5-11.3,2c-3.6,4.2-1.2,9.6,2.2,13.8c-4.5-0.9-9.2-0.2-11,4.7c-2,5.4,0.9,10.5,5.2,13.6c-2.5,1.1-4.2,3.5-4.7,6.9
		c-0.8,6.2,3.7,11.8,8.7,14.8c-1.1,0.3-2.3,0.6-3.4,1c-2.2,0.7-4.2,1.7-6.1,2.8c0.7-4.9-0.3-9.9-3.9-13.7c-2.5-2.7-5.7-3-8.6-1.7
		c0.9-5-0.2-10.4-4.9-13c-5.1-2.7-9.2,0.1-12,4.1c-0.5-5.3-2.5-10.7-8.1-11.5c-4.5-0.7-7.5,2.6-9.4,6.6c-0.9-4.1-3-7.7-7.3-8.2
		c-4.4-0.5-7.3,3-9.1,7.1c-1.1-4.4-3.4-8.5-8.3-8.6c-4.5-0.1-7.6,3-9.6,6.8c-1.1-2.8-3.3-5.1-6.2-6.8c-3-1.7-6.8-1.6-9.7,0
		c-0.1-0.2-0.2-0.4-0.4-0.6c-7.8-7-18.3-22.1-5.4-29.5c5.7-3.3,13,2.9,11.9,9c-0.6,3.5-5.1,6-8.3,4.4c-1.3-0.6-2-2.2-2.1-3.6
		c-0.1-0.7,0.2-1.4,0.5-2c0,0,0.1-0.1,0.2-0.2c0.1,0.8,0.8,1.6,2,1.3c4.9-1.2,1.8-7.6-3.1-4.5c-3.5,2.3-3.8,7.6-0.9,10.4
		c3.8,3.8,9.2,2.1,12.7-1.3c3.4-3.3,2.8-8.6,0.4-12.3c-6.5-10.2-21-3.7-22.6,6.7c-0.1,0.3-0.1,0.7-0.1,1
		c-4.2-7.7-10.4-14.9-17.4-10.4c-6.2,4,0.1,12.1,3.9,15.1c1.6,1.3,3.3,2.4,5.1,3.5c-10.1,0.9-16.7,12.8-9.2,21
		c2.8,3.1,7.9,4.7,11.8,2.7c4.7-2.5,7.5-9,3.9-13.5c-2.7-3.3-8.6-3.7-10.9,0.2c-1.1,1.7-1.9,4.5,0.5,5.6c1.9,0.9,3.7-0.8,4.1-2.5
		c0.3-1.2-0.7-1.9-1.7-1.8c0-0.1,0.1-0.1,0.1-0.2c0.8-0.9,1.9-0.8,2.9-0.7c2.2,0.4,3.4,2.7,3.4,4.7c0,4.2-4.2,6.5-7.8,5.7
		c-2.9-0.7-5.2-3.4-6.1-6.1c-1.4-4.1,1.3-8.2,4.6-10.4c8.3-5.7,19.9,4.5,25.1,10.5c0.1,0.1,0.2,0.2,0.3,0.3c0,0,0,0,0,0
		c-5.3,7-0.9,14.7,5.8,17.6c-4.1,1.8-7.6,4.9-7.8,9.6c-0.2,4.7,3.8,7.1,8.2,8.3c-3.6,1.7-6.4,4.6-6.2,9c0.1,4.6,3.5,7,7.5,8
		c-3.4,1.9-5.9,4.7-5.5,8.8c0.5,5.4,5.8,7.5,10.9,8.2c-3.6,2.6-5.9,6.3-3,10.9c2.7,4.3,8,5.6,12.8,4.9c-1.4,2.9-1.2,6.2,1.1,9.3
		c3.3,4.5,9.2,5.7,14.4,4.8c-0.5,0.8-0.9,1.5-1.3,2.3c-1,2-1.7,3.9-2.2,5.9c-3.1-4.7-8.1-8-13.9-8c-3.6,0-6.1,1.8-7.3,4.5
		c-2.9-4-7.4-6.6-12.7-5.5c-5.7,1.2-6.5,6.3-5.7,11.2c-4-3.3-9-5.5-13.6-2.5c-3.9,2.6-3.8,7.1-2.3,11.3c-3.5-2.1-7.5-3.2-10.8-0.5
		c-3.5,2.8-3.2,7.3-1.7,11.4c-3.9-2.3-8.4-3.4-11.8-0.1c-3.3,3.2-3.3,7.7-1.9,11.8c-6.3-2.5-14.2-1-16.2,6.6
		c-0.1,0.4-0.2,0.9-0.2,1.3c-8.6,0.4-21.8-1.2-24.3-10.9c-2-7.9,4.9-14.4,12.3-10.7c3.4,1.7,3.8,5.1,2.9,8.4
		c-0.8,2.6-3.3,3.7-5.7,2.7c-0.9-0.3-1.4-1-1.9-1.8c0,0-0.1-0.5-0.2-1c0.7,0.3,1.7,0.2,2.2-0.7c2.6-4.2-3.8-6.3-5.4-1.4
		c-1.6,5,3.4,8.8,7.9,8.4c5.4-0.6,7.6-7,6.7-11.6c-0.9-4.5-6-7.2-10.2-7.3c-11.7-0.2-15.4,14.1-8.4,22c-9.2-2.6-19.7-3.4-20,6
		c-0.3,7.6,11.5,7,16.2,6.1c1.2-0.2,2.4-0.5,3.6-0.8c-8.1,8.3-1.6,22.9,10.2,21.3c4.2-0.6,8.4-3.6,8.8-8.1c0.5-5.2-2.5-10.1-8-10.4
		c-3.9-0.2-7.8,3.5-7.1,7.4c1,6.1,8.4,3.7,5.7-0.7c-0.6-1-1.8-0.8-2.5-0.1c-0.1-0.6,0.1-1.3,0.4-1.8c0.7-1.2,2.2-1.6,3.4-1.7
		c4-0.2,5.4,5.3,4.5,8.3c-2.1,7.2-13,3.8-15-1.5c-5.5-14.2,15-17.3,23.9-16.8c0.2,0.1,0.4,0.1,0.6,0.2c1,3.1,3.6,5.7,6.7,6.9
		c3.2,1.3,6.5,1,9.5-0.3c-1.6,4.2-1.9,9,1.6,12.3c3.2,3.2,7.6,2.1,11.5-0.1c-1.5,4-1.4,8.2,2.4,11.2c3.4,2.7,7.2,2,10.5,0
		c-1.1,3.8-0.9,7.7,2.6,10.3c4.2,3.2,9.2,1,13.3-2.1c-0.8,4.3,0.2,8.5,5.6,9.7c4.9,1.2,9.6-1.6,12.6-5.5c1.2,2.8,3.8,4.6,7.5,4.9
		c5.4,0.4,10.3-2.7,13.5-6.9c0.3,2,0.8,4.1,1.5,6.1c0.5,1.6,1.2,3,1.9,4.4c-4.9-0.5-9.9,0.9-13.6,4.6c-2.5,2.5-3,5.5-1.9,8.3
		c-4.9-0.7-9.9,0.6-12.9,5.1c-3.3,4.9,0,9.1,4.1,11.9c-5.1,0.5-10.1,2.4-11.5,7.5c-1.3,4.8,2.4,8,6.7,9.9c-4.1,0.9-7.9,3-8.3,7.2
		c-0.5,4.6,3,7.5,7.1,9.3c-4.3,1.1-8.1,3.5-8.7,8.3c-0.6,4.5,3,7.6,7,9.6c-2.5,1-4.7,2.8-6.4,5.3c-2.5,3.6-2.3,8.1,0.1,11.5
		c-7.2,7.8-21.6,17.2-28.9,4.5c-3.3-5.7,2.5-13,8.7-11.8c3.4,0.6,6.1,5.4,4.6,8.5c-0.6,1.3-2.1,1.9-3.4,2c-0.8,0.1-1.5-0.3-2.2-0.8
		c0.1,0,0,0-0.1-0.1c0.8-0.2,1.6-1,1.3-2c-1.1-4.8-7.8-1.5-4.7,3.3c2.4,3.8,7.5,3.2,10.5,0.7c4.2-3.4,2-9.4-1.1-12.6
		c-3.3-3.4-8.7-2.6-12.4-0.3c-10.3,6.5-4.1,20.8,6.5,22.5c0.6,0.1,1.2,0.1,1.8,0.2c-1.5,0.8-2.9,1.7-4.3,2.6
		c-4.2,2.8-11.4,9.7-6.5,15.1c4.7,5.3,12.1-0.7,15.2-4.8c1.1-1.5,2.1-3,3.1-4.6c0.3,10.4,13.2,16.4,21.1,9.1c3-2.8,4.8-7.9,2.9-11.7
		c-2.5-4.8-9.1-7.3-13.6-3.7c-3.3,2.6-4,8.4-0.1,10.8c4.9,3,8.5-3.3,3.4-4.6c-1.1-0.3-1.9,0.6-2,1.5c0,0,0,0,0,0
		c-0.9-0.7-0.9-2-0.8-3c0.4-2.4,2.8-3.5,5-3.2c3.9,0.5,6.1,4.4,5.3,7.9c-0.7,2.9-3.2,5.1-6,6.1c-4.1,1.4-8.2-1.5-10.4-4.8
		c-5.5-8,3.5-19,9.5-24.5c3.3,2.2,7.8,1.8,11.3,0.1c2.6-1.3,4.5-3.6,5.6-6.2c1.8,3.9,4.9,7.1,9.5,7.3c4.6,0.2,7.1-3.6,8.4-7.9
		c1.8,3.7,4.8,6.5,9.5,5.9c4.2-0.5,6.5-3.5,7.5-7.2c1.8,3.2,4.7,5.6,8.8,5.3c5.4-0.5,7.6-5.6,8.3-10.6c2.6,3.5,6.3,5.5,10.8,2.6
		c4.2-2.7,5.6-7.8,5.1-12.6c2.8,1.2,6.1,0.9,9.1-1.3c4.4-3.2,5.8-8.7,5-13.9c1.1,0.7,2.3,1.3,3.6,1.8c1.9,0.8,3.8,1.5,5.8,1.9
		c-4,3.1-6.8,7.7-6.8,13c0,3.6,1.9,6.1,4.7,7.3c-4.1,2.9-6.8,7.4-5.7,12.7c1.2,5.8,6.6,6.4,11.6,5.4c-3.4,4.1-5.9,9.2-2.8,13.8
		c2.6,4,7.4,3.6,11.7,2c-2.3,3.6-3.6,7.7-0.8,11.2c2.8,3.5,7.5,2.9,11.7,1.3c-2.4,4-3.8,8.6-0.5,12.1c3.2,3.4,7.9,3.2,12.1,1.7
		c-2.8,6.3-1.4,14.3,6.3,16.4c0.1,0,0.1,0,0.2,0c0.3,8.5-1.3,22.3-11.1,24.1c-7.4,1.4-13.3-4.5-10.8-11.8c1.2-3.4,4.2-4.5,7.6-3.9
		c2.6,0.5,4.4,2.4,4.3,5c0,1.7-3,4.7-5,4c1.5,0.5,3-2,1.3-3c-4.1-2.5-6.9,4.4-1.7,5.4c4.9,0.9,9.1-3,8.6-8c-0.6-5.4-7-7.4-11.5-6.5
		c-4.7,0.9-7.1,6-7.4,10.3c-0.9,12.1,14.6,14.7,22.1,8.1c-2.7,9.2-3.7,19.9,5.8,20.2c7.4,0.2,7.2-11,6.5-15.7
		c-0.2-1.2-0.5-2.5-0.7-3.7c4.2,3.7,10.6,3.8,15.4,1.5c4.7-2.2,6.4-7.8,5.7-12.5c-1.4-10.4-18-11-18.5-0.2c-0.2,4.2,3.5,7.5,7.6,6.9
		c5.9-0.9,4-8.3-0.7-5.5c-1.1,0.7-1,1.8-0.3,2.5c-0.2,0-0.4,0-0.4,0c-0.7-0.1-1.2-0.5-1.7-0.9c-1-0.9-1.3-2.6-1.1-3.9
		c0.6-3.8,5.9-4.7,8.8-3.2c6.5,3.4,2.9,13.3-2.8,15c-13.3,4-16.4-14.4-16-24c3.5-0.7,6.7-3.3,8-6.6c1.3-3.3,1.3-6.7,0.1-9.8
		c4,1.4,8.2,1.5,11.7-1.4c3.7-3.1,2.7-7.6,0.5-11.7c3.7,1.2,7.5,1,10.6-2.2c3.2-3.3,2.6-7.3,0.6-10.8c3.5,0.9,7,0.6,9.8-2.3
		c3.8-4,1.7-9.4-1.5-13.6c4,0.6,7.8-0.4,9.4-5.1c1.7-5-1.3-10.1-5.3-13.2c2.9-1.1,5-3.6,5.6-7.2c0.9-5.2-1.9-9.9-5.9-13
		c0.4-0.1,0.9-0.3,1.3-0.4c2.1-0.7,4.1-1.7,5.9-2.7c-0.6,4.9,0.7,9.8,4.7,13.3c2.9,2.5,6.4,2.7,9.4,1.3c-0.7,4.9,0.6,10.1,5,12.9
		c4.5,2.8,8.2,0.7,10.7-2.8c0.6,5.1,2.7,10,8.1,10.8c4.1,0.6,6.9-1.9,8.9-5.3c1,3.7,3.2,6.8,7.7,7.4c4.5,0.6,7.5-2.2,9.3-5.9
		c1.2,4.2,3.5,7.9,8.1,8c4.8,0.1,8-3.4,9.9-7.5c2.9,6.4,10.2,10.3,16.2,6.8c0.1,0.2,0.2,0.4,0.4,0.6c7.8,7,18.3,22.1,5.4,29.5
		c-5.7,3.3-13-2.9-11.9-9c0.6-3.5,5.1-6,8.3-4.4c1.3,0.6,2,2.2,2.1,3.6c0.1,0.7-0.2,1.4-0.5,2c0,0-0.1,0.1-0.2,0.2
		c-0.1-0.8-0.8-1.6-2-1.3c-4.9,1.2-1.8,7.6,3.1,4.5c3.5-2.3,3.8-7.6,0.9-10.4c-3.8-3.8-9.2-2.1-12.7,1.3c-3.4,3.3-2.8,8.6-0.4,12.3
		c6.5,10.2,21,3.7,22.6-6.7c0.1-0.3,0.1-0.7,0.1-1c4.2,7.7,10.4,14.9,17.4,10.4c6.2-4-0.1-12.1-3.9-15.1c-1.6-1.3-3.3-2.4-5.1-3.5
		c10.1-0.9,16.7-12.8,9.2-21c-2.8-3.1-8-4.7-11.8-2.7c-4.7,2.5-7.5,9-3.9,13.5c2.7,3.3,8.6,3.7,10.9-0.2c1.1-1.7,1.9-4.5-0.5-5.6
		c-1.9-0.9-3.7,0.8-4.1,2.5c-0.3,1.2,0.7,1.9,1.7,1.8c0,0.1-0.1,0.1-0.1,0.2c-0.7,0.9-1.9,0.8-2.9,0.7c-2.2-0.4-3.4-2.7-3.4-4.7
		c0-4.2,4.2-6.5,7.8-5.7c2.9,0.7,5.2,3.4,6.1,6.1c1.4,4.1-1.3,8.2-4.6,10.5c-8.3,5.7-19.9-4.5-25.1-10.5c-0.1-0.1-0.2-0.2-0.3-0.2
		c0.3-0.3,0.6-0.7,0.9-1.1c2.5-3.5,1.4-8.3-0.8-11.6c-1.4-2.2-3.5-3.7-5.8-4.6c3.8-1.9,6.9-4.8,7-9.3c0.2-4.9-4.1-7.3-8.8-8.5
		c4.1-1.7,7.6-4.5,7.4-9.1c-0.2-4.4-4-6.5-8.3-7.4c4-1.8,7.2-4.8,6.9-9.4c-0.5-5.6-6.1-7.6-11.5-8.1c4-2.6,6.8-6.5,4.5-11.6
		c-2.3-5.1-8.1-6.2-13.2-5.3c1.1-2.6,0.9-5.5-1.3-8.1c-3.6-4.2-9.1-5.5-14.3-4.9c0.5-0.8,1-1.6,1.4-2.5c1.1-2.2,1.9-4.4,2.4-6.6
		c3.2,4.2,8,6.9,13.5,6.1c3.5-0.5,5.9-2.6,7-5.4c3,3.8,7.6,6.4,12.5,5.4c5.2-1.1,6.4-5.2,5.8-9.4c3.9,3,8.7,4.9,13.1,1.9
		c3.5-2.4,3.8-6.3,2.8-10.1c3.3,1.9,7.1,2.3,10.5-0.3c3.6-2.8,3.8-6.9,2.5-10.7c3.8,2.1,8.1,3,11.4-0.2c3.5-3.3,3.3-8,1.7-12.2
		c6.3,2.3,14.1,0.6,16.1-6.4c8.6-0.4,21.9,1.2,24.4,10.9c2,7.9-4.9,14.4-12.3,10.7c-3.4-1.7-3.8-5.1-2.9-8.4
		c0.8-2.6,3.3-3.7,5.7-2.7c0.9,0.3,1.4,1,1.9,1.8c0,0,0.1,0.5,0.2,1c-0.7-0.3-1.7-0.2-2.2,0.7c-2.6,4.2,3.8,6.3,5.4,1.4
		c1.6-5-3.4-8.8-7.9-8.3c-5.3,0.6-7.6,7-6.7,11.6c0.9,4.5,6,7.2,10.2,7.3c11.7,0.2,15.4-14.1,8.4-22c9.2,2.6,19.7,3.4,20.1-6
		C558.9,291.5,547.1,292.1,542.5,293z M41.1,299.8c-2.7-1.9-0.4-4.8,1.7-5.7c1.3-0.6,2.9-0.5,4.3-0.5c3,0,6,0.8,8.8,1.6
		c2.6,0.7,5.3,1.7,7.8,2.7C56.7,300.8,47,304.1,41.1,299.8z M464.1,321.9c-13.5,10-29,17.5-45.9,12.3c0-1.2-0.1-2.3-0.3-3.4
		c13,3.7,25.4,0.1,36.5-7.2c11.7-7.6,21.9-20,35.7-23.8c1.2-0.3,1.8-2.3,0.4-2.9c-14.5-5.7-25.8-18.2-38.5-26.8
		c-10.3-6.9-21.8-9.2-33.5-5.3c0.1-1.1,0.2-2.3,0.2-3.5c16.4-6.5,30.4,1.6,43.4,11.4c11.5,8.7,22.4,19.8,35.6,26.2
		C485,303.7,474.7,314,464.1,321.9z M430.8,394c2.2,14.8,1.9,31.1,6.8,45.4c-11.7-5.1-25.7-5.3-38.1-7.1c-17-2.4-34-7.8-42.7-23.7
		c0.8-0.8,1.5-1.6,2.2-2.5c7.2,12.6,19.5,18.4,33.4,20.9c12.8,2.3,27.7,1.3,39.4,7.9c1.1,0.6,3-0.7,2.4-1.9c-6-14-5.4-30.4-8.1-45.2
		c-2.3-12.3-8.5-22.4-19.4-28.1c0.8-0.7,1.6-1.4,2.4-2.2C424,364.2,428.5,378.6,430.8,394z M339.2,414.8c-0.2,0-0.4,0-0.6,0.1
		c-0.8,0.2-1.6,0.3-2.4,0.4c-0.2,0-0.3,0-0.5,0c-0.5,0-1,0.1-1.4,0.1c-0.1-3.3-0.3-6.7-0.4-10c1.2-0.1,2.4-0.3,3.6-0.6
		c0,0.1,0,0.2,0.1,0.3c0.8,3.1,1.6,6.3,2.4,9.4c0,0,0,0,0,0C339.8,414.7,339.5,414.8,339.2,414.8z M320.2,465.4
		c-7.5,9.8-17,19.4-21.7,31.1c-6.4-13.4-17.5-24.6-26.2-36.3c-9.5-12.8-16.9-26.7-10.7-42.6c1.1,0,2.3-0.1,3.4-0.2
		c-4.1,12-1.3,23.6,5.7,34.2c8.2,12.5,20.2,23.5,25.7,37.6c0.6,1.5,2.7,1.3,3.2-0.2c3.6-12.8,15-22.7,22.6-33.2
		c8.1-11.2,12.6-23.9,9.3-37.5c1.1,0.1,2.2,0.1,3.3,0C339.5,436,330.7,451.7,320.2,465.4z M241.1,406.4c2.2-2.4,4.5-4.8,6.7-7.2
		c1,0.8,2,1.6,3.1,2.3c-0.1,0.1-0.1,0.2-0.2,0.2c-1.6,2.8-3.2,5.5-4.9,8.3C244.1,409,242.5,407.7,241.1,406.4z M197.5,431.4
		c-13.2,2-28,1.8-40.5,7.2c4.6-13,5-27.7,6.8-41.2c2.2-16.3,6-33.3,22.3-40.5c0.7,0.8,1.4,1.5,2.2,2.2c-26.6,13.4-17,49.6-27.3,72.8
		c-0.7,1.5,0.8,2.8,2.2,2c12.3-6.8,28.3-5.4,41.8-7.9c13.1-2.4,24.5-8.7,31.3-20.3c0.7,0.9,1.5,1.7,2.4,2.6
		C230.1,423.6,213.9,429,197.5,431.4z M129.5,319.1c-9.9-7.6-19.6-17.1-31.4-21.8c13-6.2,24-16.9,35.3-25.5
		c13-9.8,27.3-18,43.6-11.3c0.3,0.1,0.7,0.2,1,0.1c-0.1,1.2-0.1,2.3,0,3.5c-11.8-4-23.2-1.8-33.7,4.9c-12.9,8.3-24.1,20.8-38.6,26.4
		c-1.5,0.6-1.7,2.6,0,3c13.4,3.8,23.6,16,34.8,23.7c11.7,8.1,24.3,11.1,38.1,7.3c-0.2,1.3-0.4,2.6-0.5,3.9c-0.2,0-0.3,0-0.5,0.1
		C159.5,339,143.5,329.8,129.5,319.1z M164,199.7c-2.1-13.4-1.8-28.4-7.2-41.1c13.2,4.6,28.1,4.9,41.8,6.7
		c16.2,2.2,32.6,6.3,39.7,22.5c-0.7,0.7-1.4,1.4-2,2.2c-13.5-26.9-49.3-17.2-72.8-27.6c-1.4-0.6-3,0.9-2.3,2.3
		c6.7,12.1,5.5,27.7,7.8,40.9c2.3,13.5,8.6,25.2,20.6,32.1c-0.8,0.7-1.6,1.5-2.4,2.3C172.1,231.8,166.6,215.9,164,199.7z
		 M271.3,132.9c8.5-11.1,19-21.7,25.3-34.4c4.8,12.5,15.2,22.9,23,33.5c9.8,13.3,17.4,28.7,12.6,45.4c-1.2,0.1-2.3,0.2-3.5,0.4
		c3.6-13,0.1-25.2-7.1-36.3c-7.6-11.7-20-22-23.8-35.8c-0.5-1.7-2.6-1.1-3.2,0.2c-5.6,14-17.7,25.1-26.1,37.4
		c-7.4,10.7-10,22.8-5.6,35.1c-1.2-0.1-2.5-0.1-3.7,0c0.3-0.3,0.4-0.8,0.2-1.3c-2.6-6.6-3.3-13.2-1.7-20.2
		C259.6,148.1,265.7,140.2,271.3,132.9z M354,188.8c-2.2,2.4-4.4,4.8-6.6,7.2c-1-0.8-2-1.6-3.1-2.3c0.1-0.1,0.1-0.2,0.2-0.2
		c1.6-2.8,3.2-5.5,4.9-8.3C350.9,186.2,352.5,187.4,354,188.8z M368.2,171.8c7.6-5.3,17.2-6.8,26.2-8.1c14.6-2.1,30.6-1.9,44.8-6.8
		c-5.2,11.6-5.5,25.3-7.2,37.6c-2.4,17-7.4,34.3-23.2,43.2c-0.9-0.8-1.8-1.6-2.8-2.3c12.3-7.2,18.2-19.4,20.7-33.2
		c2.3-12.8,1.3-27.8,7.9-39.4c0.7-1.2-0.5-2.7-1.8-2.2c-14,6-30.4,5.2-45.2,8.1c-12.7,2.5-23,8.8-28.8,20.5
		c-0.7-0.9-1.5-1.8-2.4-2.6c0.2-0.1,0.3-0.3,0.4-0.6C359.3,180.4,362.9,175.5,368.2,171.8z M417.2,327.4c-0.6-2.5-1.5-4.8-2.7-7.1
		c6.5,2.3,14.2,1.7,20.5,0.1c14.6-3.8,24.7-17.3,39.3-20.8c1.2-0.3,1.9-2.4,0.4-2.9c-14.2-4.9-24.6-17.1-38.9-21.9
		c-6.3-2.1-14.1-2.1-20.5,0.6c1.1-2.3,1.9-4.7,2.4-7.2c27.6-10.3,45.2,18.9,67.5,29.9c-10.2,4.1-18.7,12.6-27.3,19.1
		c-11.9,9-25.2,14.8-40.1,10.2C417.7,327.3,417.4,327.3,417.2,327.4z M356.1,404.4c-1.9-2.5-3.8-5-5.7-7.5c-0.1-0.1-0.1-0.2-0.2-0.2
		c0.5-0.7,1-1.4,1.4-2.1c2.3,2.1,4.7,4.1,7,6.2C357.9,402,357.1,403.2,356.1,404.4z M324.4,359.7c-0.6-0.3-1.2-0.2-1.6,0.1
		c-0.4,0.2-0.7,0.5-0.8,1c-0.8,3.3-2.1,6.1-3.9,8.8c-0.4,0.2-0.7,0.5-0.8,1c0,0.1-0.1,0.2-0.1,0.3c-5.8,7.9-14.9,13.6-19.7,22.2
		c-0.2,0-0.4,0-0.5,0.1c-2.8-4-6.5-7.6-9.8-11.1c-6-6.5-11.7-13.6-14-22.3c-0.4-1.6-2.5-1.2-3.1-0.1c-2.5,1.5-5.2,2.4-8,2.9
		c-0.4-0.1-0.8-0.1-1.3,0.2c0,0-0.1,0.1-0.1,0.1c-10.1,1.5-21.1-1.3-30.9,1.8c1-5.1,0.8-10.6,1.1-15.8c0.4-8.7,1.3-17.6,5.8-25.3
		c0.9-1.5-0.7-2.5-2-2.1c-8-2.3-14.4-8-20.4-13.6c-3.7-3.5-7.4-7.5-11.6-10.5c12.3-6.2,19-21,33.2-24.2c0,0,0,0,0,0
		c0.1,0,0.2,0,0.2-0.1c0.8-0.2,1.2-0.8,1.2-1.4c0.1-0.3,0-0.6-0.2-1c-4.2-7.5-4.9-16-5.3-24.4c-0.1-2.7-0.1-5.4-0.1-8.2
		c0.3-0.5,0.4-1.1,0-1.5c-0.1-2.1-0.2-4.2-0.5-6.2c0.1-0.1,0.1-0.2,0.2-0.4c12.8,4,27.9-1.8,39.7,5.9c0.1,0.1,0.2,0.1,0.3,0.1
		c0.8,0.7,2.5,0.5,2.8-0.8c2.4-8.6,8.2-15.3,14.2-21.7c3.4-3.6,7.3-7.2,10.3-11.3c0.1,0,0.1,0,0.2,0c6.3,12.6,21.7,19.4,25,34
		c0.3,1.4,1.9,1.3,2.7,0.5c0.5-0.1,1-0.3,1.3-0.8c2.3-3.2,8.6-3.6,12.2-4.1c3.7-0.5,7.5-0.7,11.2-0.8c5-0.2,10.3,0.1,15.2-0.8
		c0,0,0,0,0,0.1c-4.4,13.1,1.7,28.5-6.2,40.7c-0.5,0.8-0.2,1.5,0.3,1.9c0.1,0.4,0.5,0.8,1.1,0.9c13.8,3.4,20.2,18.9,32.3,25.3
		c0,0.1,0.1,0.2,0.1,0.2c-4.1,2.8-7.7,6.6-11.4,10c-6.5,6-13.5,11.7-22.2,14c-0.6,0.2-1,0.6-1.1,1.1c-0.2,0.4-0.2,0.9,0.1,1.3
		c1.8,2.9,2.8,5.8,3.4,8.9c0,0.3,0,0.6,0.2,0.9c0,0,0,0,0,0c1.7,9.9-0.8,20.6,1.9,30.3c-0.2,0.1-0.4,0.3-0.6,0.5
		c-4.8-0.8-10-0.6-14.8-0.9C341,365.1,332.1,364.1,324.4,359.7z M316,458.7c-6.2,8.1-14.2,16-18.2,25.6c-5.3-11-14.2-20.3-21.2-30
		c-4.4-6.1-8.5-12.4-10-19.9c-1.2-5.9-0.1-12,2-17.6c2.5-0.6,4.9-1.5,7.2-2.7c-2.6,5.7-2.8,12.6-1.5,18.5
		c3.3,15.3,17.2,26.2,22.1,40.9c0.5,1.5,2.8,1.3,3.2-0.2c3.2-12.9,14.3-22.5,19.5-34.6c2.9-6.6,4.2-15.1,2.4-22.6
		c2.1,0.8,4.2,1.4,6.5,1.8C332.2,433.4,325.4,446.7,316,458.7z M268.1,404.1c0.2,3.1,0.4,6.2,0.6,9.3c-1.5,0.4-2.9,0.6-4.4,0.8
		c0.4-3.2,0.9-6.4,1.3-9.5C266.5,404.5,267.3,404.3,268.1,404.1z M290.7,390.6c-0.4,1.9-1,3.6-1.7,5.3c-1.6-1.9-3.2-3.8-4.8-5.6
		c-0.1-0.1-0.2-0.2-0.2-0.2c0.7-1.6,1.2-3.3,1.5-5.1C287.2,386.8,289.1,388.6,290.7,390.6z M309,384.4c0.2,1.7,0.5,3.3,1,4.9
		c-0.1,0.1-0.1,0.1-0.2,0.2c-1.5,1.9-3.1,3.8-4.6,5.8c-0.7-1.7-1.2-3.5-1.5-5.4C305.3,387.9,307.2,386.1,309,384.4z M317.4,414.3
		c0.8,2.1,1.3,4.3,1.5,6.6c-6.2-3.7-10.6-10.4-13.4-17.4C308.6,408.1,312.7,411.8,317.4,414.3z M292.3,396.3c-1.6,8-4,16.5-9.7,22.6
		c-1.4,1.5-3.8,3.4-5.8,3.8c0.4-3.9,1.6-7.7,3.8-10.8c0.3-0.4,0.3-0.7,0.3-1C285.9,407.2,289.9,402.2,292.3,396.3z M284,421.8
		c6.5-5.9,9.4-15.2,11.2-23.8c-1.3,10.4-4,20.7-9.7,29.6c-1.8,2.8-4.1,5.9-6.9,7.8c-0.1-0.1-0.1-0.3-0.2-0.4c-1.1-2.8-1.7-6-1.7-9.2
		C279.5,425.5,282.1,423.6,284,421.8z M287.9,429.6c3-4.4,5.2-9.3,6.9-14.4c-1.9,10.8-5.6,21.9-11.3,29.7c-1.3-2.2-2.5-4.4-3.6-6.6
		C283.2,436.2,285.8,432.8,287.9,429.6z M294.2,430.8c-1.1,7.9-2.6,15.8-4.6,23.5c-1.5-2.2-3-4.4-4.4-6.6
		C289.1,442.7,292,436.9,294.2,430.8z M292,457.8c2.1-7.7,3.7-15.7,5-23.7c-0.1,10.5-0.3,21-0.4,31.5
		C295.2,463,293.6,460.4,292,457.8C292,457.9,292,457.9,292,457.8z M300.2,437.1c1.3,6.2,3,12.4,5,18.3c-1.9,2.8-3.8,5.6-5.4,8.6
		C300,455,300.1,446.1,300.2,437.1z M307.6,452c-2.1-6.5-3.8-13.3-5-20.1c2.2,5.3,5.1,10.2,8.9,14.3c0,0,0,0,0,0
		C310.3,448.2,309,450.1,307.6,452z M313.6,442.7c-0.1,0.2-0.2,0.3-0.3,0.5c-6.8-7.6-10.5-18.3-12.2-28.8c1.6,4.8,3.8,9.5,6.8,13.6
		c2.2,3,5.2,6.4,8.7,8C315.7,438.3,314.7,440.6,313.6,442.7z M317.6,432.8c-2.6-1.4-4.7-3.8-6.5-6c-5.4-6.9-8.1-15.6-9.5-24.2
		c3.2,9.1,8.8,18,17.4,22.1C318.8,427.4,318.3,430.1,317.6,432.8z M282.3,393.2c1.7,2,3.4,4,5.1,5.9c-0.9,1.6-2,3.1-3.1,4.5
		c-1.4-2.4-2.8-4.8-4.3-7.2C280.9,395.4,281.7,394.3,282.3,393.2z M277.6,398.9c1.4,2.4,2.9,4.8,4.3,7.3c-1,0.9-2,1.8-3.1,2.6
		c-1-2.7-2.1-5.5-3.1-8.2C276.3,399.9,277,399.4,277.6,398.9z M272.8,402.2c1.1,2.8,2.1,5.5,3.2,8.3c-1.3,0.7-2.6,1.3-4,1.9
		c-0.2-3.1-0.4-6.3-0.6-9.4C271.8,402.7,272.3,402.5,272.8,402.2z M330.7,405.5c0.1,3.3,0.2,6.6,0.4,9.9c-1.5-0.1-3-0.4-4.5-0.7
		c0.3-3.2,0.6-6.4,0.9-9.6C328.5,405.3,329.6,405.4,330.7,405.5z M324.2,404.2c-0.3,3.1-0.6,6.2-0.9,9.4c-1.1-0.4-2.2-0.9-3.3-1.5
		c-0.4-0.9-0.8-1.8-1.3-2.6c0.9-2.2,1.8-4.4,2.7-6.6c0.9,0.5,1.8,0.9,2.8,1.2C324.2,404.2,324.2,404.2,324.2,404.2z M318.6,401.7
		c-1,2.5-2,5-3.1,7.5c-1.5-1.1-2.8-2.4-4.1-3.7c1.4-2.3,2.7-4.6,4.1-6.9c1,1,2.1,1.9,3.3,2.8C318.7,401.4,318.6,401.6,318.6,401.7z
		 M313,396.7c-1.2,2.1-2.5,4.2-3.7,6.2c-1-1.4-1.9-2.9-2.7-4.4c1.6-2,3.1-3.9,4.7-5.9c0.6,1.3,1.4,2.5,2.2,3.6
		C313.3,396.3,313.1,396.4,313,396.7z M238.9,404.2c-1-1.2-2-2.5-2.8-3.8c2.4-2,4.9-4,7.3-6.1c0.6,1,1.3,1.9,2.1,2.8
		C243.4,399.4,241.1,401.8,238.9,404.2z M187.1,352.7c0-0.2-0.1-0.4-0.2-0.5c2.7-1.6,5.5-3.1,8.2-4.7c0.7,0.9,1.4,1.8,2.2,2.6
		c-2.5,1.9-5,3.8-7.5,5.7C188.8,354.8,187.9,353.8,187.1,352.7z M181.2,333c0.1-1.6,0.4-3.1,0.7-4.6c3.2,0.3,6.3,0.6,9.5,0.9
		c-0.2,1.1-0.4,2.2-0.5,3.4C187.7,332.7,184.5,332.9,181.2,333z M178.7,326.3c-7.7,2.3-15.7,2.8-23.4,0.2
		c-6.7-2.3-12.6-6.5-18.2-10.7c-8.5-6.5-16.7-14.8-26.8-19c22.3-11.1,40.5-40,68-29c0.1,0,0.1,0,0.2,0.1c0.4,2.4,1.1,4.7,2,7
		c-5.3-2.3-11.6-2.7-17.1-1.6c-15.8,3.4-26.9,17.2-42,22.3c-1.5,0.5-1.7,2.6,0,3c12.9,3.2,22.5,14.3,34.6,19.6
		c8,3.5,18.1,4.2,26.5,1c-1.3,2.3-2.3,4.7-3.1,7.2C179.1,326.2,178.9,326.2,178.7,326.3z M189.1,242.2c2.5,2.3,4.9,4.6,7.4,6.9
		c-0.8,0.9-1.5,1.9-2.2,2.9c-0.1-0.1-0.1-0.1-0.2-0.1c-2.8-1.6-5.6-3.3-8.3-4.9c-0.1,0-0.1,0-0.2-0.1
		C186.6,245.1,187.8,243.6,189.1,242.2z M192.1,235.4c-13.3-7.3-18.4-20.3-20.6-34.7c-1.7-11.1-1.3-23.4-5.7-34
		c22.9,7.5,56.9,0.4,68.1,26.2c-1.4,2.1-2.5,4.3-3.4,6.7c-2.6-5.9-7.8-10.8-13.2-13.9c-13.1-7.3-29.5-5.7-42.9-12.4
		c-1.4-0.7-3.1,0.9-2.3,2.3c3.8,6.4,4.8,14,6.2,21.2c1.4,7.4,3,14.7,6.5,21.4c2.8,5.4,7.7,10.8,13.5,13.9c-2.1,0.9-4.2,2-6.1,3.3
		C192.3,235.5,192.2,235.5,192.1,235.4z M220.6,277.1c10.1-5.7,1.5-24.3-8.3-16.2c-3.2,2.6-2.5,9.8,2.6,7.5c2.8-1.3,1.8-4.6-0.3-5.5
		c0.6-0.5,1.3-0.8,2-0.8c1.7-0.2,3.1,1,4,2.2c2.1,2.8,1.7,7.1-0.7,9.5c-4.9,5-12.8,0.7-15.6-4.2c-4-7.2,2.7-15.5,9.9-16.4
		c6.8-0.9,13,4.9,15.9,10.4c0.2,0.4,0.5,0.6,0.8,0.7c0.6,2.2,1.4,4.3,2.4,6.4c-7.7,2.3-13.2,7.6-19,13.1c-0.1,0-0.3-0.1-0.4-0.1
		c-14.6-0.5-23.9-15.5-17.8-28.8c6-13.1,23.3-14.1,32.7-4.4c0.1,2.1,0.3,4.2,0.6,6.3c-7.9-8.3-21.3-9.8-27.9,1.9
		C194.9,270.8,209.2,283.5,220.6,277.1z M201.7,339.7c4.2,12.4,25.5,11.5,26.6-2.4c0.5-5.6-4.5-11.6-10.4-11.2
		c-4.7,0.3-8.1,4.1-7.1,8.8c0.8,4,6.1,5.4,7.3,0.9c0.6-2.5-2.1-3.7-4.1-3c0-0.2,0-0.5,0.1-0.9c0.3-1.4,1.5-2.1,2.7-2.5
		c3.5-1.2,7.4,2.8,8.3,5.8c0.9,3.5-1.8,6.9-4.5,8.7c-3.2,2.2-7.3,1.9-10.7,0.3c-6.8-3.1-7.3-12.8-3.2-18.2
		c4.2-5.4,12.6-5.7,18.5-3.8c0.7,0.2,1.3-0.1,1.6-0.5c1.9,1,3.9,1.9,6,2.6c-3.2,6.5-4.3,13.7-4.9,21c-0.1,1-0.1,2-0.2,2.9
		c-10.7,9.8-27.5,5.6-32.6-7.9c-5-13.5,6.2-26.7,19.9-26.4c0.3,0,0.6-0.1,0.8-0.2c1.8,1.6,3.6,3.1,5.6,4.5
		C209.4,317.3,197.1,326.1,201.7,339.7z M192.1,357.9c2.5-1.9,4.9-3.7,7.4-5.6c0,0,0.1-0.1,0.1-0.1c0.8,0.6,1.5,1.1,2.4,1.5
		c-2,2.3-4,4.6-6.1,6.9C194.6,359.8,193.3,358.9,192.1,357.9z M198.7,362c2-2.3,4.1-4.6,6.1-7c0.6,0.2,1.1,0.4,1.7,0.6
		c-1.1,2.5-2.2,5-3.3,7.4c-0.4,0.1-0.7,0.1-1.1,0.2C201,363,199.9,362.5,198.7,362z M213.6,364.6c0.7-2.7,1.4-5.4,2.1-8.1
		c1.3-0.1,2.7-0.4,4-0.7c-0.2,2.6-0.4,5.2-0.6,7.8C217.3,364.2,215.5,364.5,213.6,364.6z M210.3,364.7c-1.4,0-2.8-0.2-4.2-0.4
		c1.2-2.6,2.4-5.3,3.5-7.9c0.9,0.1,1.8,0.2,2.7,0.3C211.7,359.3,211,362,210.3,364.7z M218.1,367.1c-5.2,2.8-10.9,4.8-16.8,5.1
		c-2.1,0.1-5.5-0.5-7.1-1.3c2.3-1.9,4.9-3.4,7.7-4.3C207.1,368,212.7,368.2,218.1,367.1z M191.7,373.2c2.6,1.7,6,2,8.9,2.1
		c7.8,0.1,15.4-3.2,22.1-7.3c-7.8,5.8-16.4,10.5-25.9,12.7c-3.3,0.7-7.1,1.2-10.5,0.6C187.7,378.3,189.5,375.6,191.7,373.2z
		 M184.7,385.2c0.1-0.3,0.2-0.7,0.3-1c3.8,0.8,8.1,0.3,11.8-0.5c6-1.2,11.7-3.5,17-6.5c-9.1,6.8-19.8,12.4-30.8,14.1
		C183.6,389.3,184.1,387.2,184.7,385.2z M182.4,394.6c6.5-0.9,12.8-3,18.8-6c-6.5,5-13.4,9.6-20.4,13.8
		C181.4,399.8,181.9,397.2,182.4,394.6z M180,406.5c7.3-4.2,14.4-8.9,21.3-14c-7.9,7.7-15.8,15.4-23.7,23.1
		C178.5,412.6,179.3,409.5,180,406.5z M201,397c-3.7,5.6-7,11.3-9.9,17.2c-3.5,0.6-6.9,1.3-10.3,2.4C187.5,410,194.3,403.5,201,397z
		 M206.1,394.9c-2.4,5.6-3.9,11.4-4.1,17.2c-2.3,0.5-4.7,0.9-7.1,1.4C198.2,407.1,202,400.9,206.1,394.9z M217.7,381.1
		c-2.6,4.9-4.6,10.1-5.4,15.7c-0.6,3.7-0.9,8.2,0.5,11.8c-0.7,0.3-1.4,0.7-2.2,0.9c-1.7,0.7-3.5,1.3-5.3,1.8
		C205.9,400.6,211.2,390,217.7,381.1z M215.8,407.1c-0.9-2.9-0.7-6.2-0.4-9.1c1-9,5.6-17.4,11-24.8c-4.5,8.9-7.3,19.7-4,29
		C220.4,404.1,218.1,405.7,215.8,407.1z M225.1,399.5c-2.6-10.1,1.7-21.6,7.1-30.1c-3.7,7.2-4.5,15.2-2.7,22.6
		C228.5,394.7,227,397.3,225.1,399.5z M232.2,388.9c-0.3-1.8-0.4-3.7-0.3-5.6c2.6-0.7,5.2-1.3,7.9-2c0,1.4,0.1,2.9,0.3,4.3
		C237.5,386.7,234.8,387.8,232.2,388.9z M240,378.1c-0.2,0-0.4,0-0.6,0.1c-2.4,0.6-4.8,1.2-7.2,1.8c0.2-1.7,0.6-3.4,1.2-5.1
		c2.6-0.3,5.1-0.6,7.7-0.9C240.6,375.4,240.2,376.8,240,378.1z M227.3,360.2c-1.6,1-3.2,1.8-4.8,2.4c0.2-2.5,0.4-5,0.6-7.5
		c0-0.1,0-0.2,0-0.3c1.6-0.7,3.1-1.5,4.6-2.5C227.6,354.9,227.6,357.6,227.3,360.2z M197.8,308.4
		C197.8,308.4,197.8,308.4,197.8,308.4c2.1,1.7,4.1,3.3,6.2,4.9c-1.2,0.6-2.3,1.3-3.4,2.1c-0.1-0.2-0.3-0.4-0.5-0.5
		c-2.2-1.3-4.3-2.6-6.5-3.9C194.8,310,196.3,309.1,197.8,308.4z M190.8,313.3c2.4,1.4,4.8,2.8,7.2,4.3c-1,1-1.9,2-2.7,3.1
		c0,0,0,0,0,0c-2.7-1.1-5.4-2.2-8.1-3.3C188.3,315.8,189.5,314.5,190.8,313.3z M185.4,320c2.7,1.1,5.5,2.3,8.2,3.4
		c-0.5,0.9-0.9,1.8-1.2,2.7c-3.2-0.3-6.3-0.6-9.5-0.9C183.5,323.5,184.4,321.7,185.4,320z M207.4,311.9c-0.1-0.1-0.2-0.2-0.3-0.3
		c-2-1.6-4-3.2-5.9-4.7c1.8-0.7,3.8-1.2,5.8-1.5c0.1,0,0.1,0,0.2,0c1.9,1.8,3.8,3.8,5.6,5.6C210.9,311,209.1,311.4,207.4,311.9z
		 M185.8,314.2c-0.3,0-0.6,0.1-0.9,0.3c-3.4,2.1-7.2,3.1-11,3.4c5.7-9.7,18.3-14.7,28.6-16.7c0.7,0.5,1.3,1,1.9,1.6
		C196.8,304.5,190.4,308.6,185.8,314.2z M183.1,279.7c3,4.7,7.1,8.8,12.1,11.6c-6.5-1.9-12.8-4.8-17.9-9.4c-1.8-1.6-3.8-3.8-4.8-6.1
		c3.7,0.4,7.2,1.6,10,3.6C182.6,279.6,182.9,279.7,183.1,279.7z M192,285.2c2.4-1.4,4.7-2.8,7.1-4.2c1.1,0.9,2.3,1.7,3.5,2.5
		c-2,1.7-3.9,3.3-5.9,5C195.1,287.6,193.5,286.5,192,285.2z M189.7,283.1c-1-1-1.9-2.2-2.7-3.3c2.7-1,5.3-2,8-3.1
		c0.5,0.8,1.1,1.5,1.8,2.2C194.5,280.3,192.1,281.7,189.7,283.1z M193.4,274c-2.7,1-5.4,2-8,3.1c-0.7-1.3-1.4-2.7-1.9-4.2
		c3.1-0.2,6.1-0.4,9.2-0.6C192.8,272.9,193.1,273.5,193.4,274z M168.8,275.7c0.9,3.4,3.6,6.3,6.1,8.7c4.3,4.1,9.7,6.9,15.4,8.8
		c-8.2-1.6-16.3-4.2-23.3-8.9c-2.7-1.8-5.7-4.1-7.6-6.9C162.3,276.4,165.5,275.8,168.8,275.7z M156.3,278.9c2.1,3.4,5.7,6.1,9,8.3
		c4.7,3.1,9.8,5.3,15.2,7c-10.9-1.8-22-5.3-30.6-11.7C152,281.1,154.1,279.9,156.3,278.9z M146.9,284.3c5,3.9,10.9,6.8,17.1,9
		c-8-1.1-15.9-2.7-23.6-4.6C142.5,287.2,144.7,285.7,146.9,284.3z M136.7,291C136.8,291,136.8,291,136.7,291
		c8.1,2.2,16.3,3.9,24.6,5.1c-10.8-0.2-21.7-0.3-32.5-0.5C131.5,294.2,134.2,292.7,136.7,291z M158.5,299.2
		c-6.4,1.3-12.8,3-18.9,5.1c-2.9-2-5.8-3.9-8.8-5.5C140,298.9,149.3,299.1,158.5,299.2z M164,301.3c-5.7,2.3-10.9,5.3-15.2,9.3
		c-2-1.3-4-2.7-6-4.1C149.6,304.3,156.8,302.5,164,301.3z M181.9,299.8c-5.6,1.7-10.9,4.1-15.6,7.7c-2.8,2.1-5.7,4.9-7.4,8.2
		c-2.3-0.8-4.6-1.8-6.7-3c-0.2-0.1-0.5-0.3-0.7-0.4C159.6,305,171,301.4,181.9,299.8z M162.8,315.3c1.5-2.2,3.6-4.1,5.7-5.7
		c7.2-5.4,16.2-8,25.1-9.3c-9.5,3.1-19,8.8-23.4,17.6c-2.8-0.1-5.5-0.6-8.2-1.3C162.3,316.1,162.6,315.5,162.8,315.3z M205.6,292
		c-0.1,0-0.1,0-0.2-0.1c-2-0.4-3.9-1.1-5.7-1.9c1.9-1.6,3.8-3.2,5.7-4.9c0.1,0,0.1-0.1,0.1-0.1c1.9,0.8,3.8,1.3,5.9,1.6
		C209.6,288.5,207.6,290.3,205.6,292z M195.1,237.2c2.1,2.5,4.2,5,6.2,7.5c-0.9,0.6-1.7,1.2-2.5,1.9c-2.4-2.3-4.9-4.5-7.3-6.8
		C192.6,238.9,193.9,238,195.1,237.2z M234.3,199.3c2.3,2.1,4.7,4.1,7,6.2c-0.2,0.5-0.4,1-0.5,1.5c-2.7-1.2-5.3-2.4-8-3.6
		C233.2,202,233.7,200.6,234.3,199.3z M228.7,245.9c-1.2-0.9-2.5-1.8-3.8-2.4c0-0.1,0-0.2,0-0.4c-0.3-2.4-0.5-4.9-0.8-7.3
		c1.6,0.7,3.1,1.6,4.5,2.6C228.7,240.9,228.7,243.4,228.7,245.9z M210.3,241.2c0,0,0-0.1,0-0.1c-1.1-2.6-2.2-5.3-3.3-7.9
		c1.8-0.2,3.5-0.3,5.3-0.2c0.7,2.7,1.3,5.3,2,8C212.9,240.9,211.6,241,210.3,241.2z M217.6,240.4c-0.6-2.4-1.2-4.8-1.8-7.1
		c1.6,0.3,3.3,0.6,4.9,1.2c0,0,0,0,0,0c0.3,2.5,0.6,5.1,0.9,7.6c-1.3-0.4-2.6-0.7-3.9-0.9C217.6,240.9,217.6,240.7,217.6,240.4z
		 M239.7,212.9c-2.7-0.7-5.3-1.4-8-2.1c0-1.4,0.2-2.7,0.4-4.1c2.6,1.2,5.3,2.4,7.9,3.5C239.9,211.1,239.8,212,239.7,212.9z
		 M231.9,214.1c2.6,0.7,5.3,1.4,7.9,2c0.1,1.4,0.3,2.7,0.7,4.1c-2.5-0.2-5-0.4-7.6-0.6C232.3,217.8,232,216,231.9,214.1z
		 M229.9,221.3c-0.1,0.4,0,0.8,0.4,1.1c0.2,0.7,0.4,1.3,0.7,1.9c-4.4-6.7-8.3-14.2-8.2-22.3c0-2,0.6-4.9,1.6-6.5
		c2.4,3,4.2,6.4,4.8,10.1C228.2,210.8,228.4,216.1,229.9,221.3z M224,219.3c-4.2-6.5-7.6-13.5-9.3-21.1c-0.7-3.2-1.3-7.1-0.7-10.4
		c2.9,1.3,5.7,3.2,8,5.5c-1.9,2.3-2.5,5.6-2.7,8.4C219.1,207.7,221.1,213.7,224,219.3z M211.4,198.5c1,5.1,2.8,10.1,5.2,14.7
		c-6.1-8.6-11-18.5-12.6-28.6c2.4,0.6,4.7,1.2,7,2C210.1,190.4,210.7,194.7,211.4,198.5z M200.5,183.9c0,0.1,0,0.2,0,0.2
		c0.8,5.9,2.6,11.7,5.2,17.3c-4.6-6.1-8.9-12.5-12.8-19.1C195.5,182.8,198,183.3,200.5,183.9z M188.6,181.4
		C188.6,181.4,188.6,181.4,188.6,181.4c3.9,6.8,8.2,13.4,12.9,19.8c-7.1-7.3-14.3-14.7-21.4-22C182.8,180.1,185.7,180.8,188.6,181.4
		z M197.4,201.8c-5.3-3.4-10.7-6.5-16.2-9.2c-0.6-3.3-1.3-6.6-2.2-9.7C185.1,189.2,191.3,195.5,197.4,201.8z M199.8,207.4
		c-5.3-2.2-10.9-3.6-16.5-3.8c-0.5-2.3-0.9-4.6-1.4-7C188,199.8,194,203.4,199.8,207.4z M212.8,218.5c-4.6-2.3-9.4-4-14.5-4.7
		c-3.6-0.5-8-0.7-11.5,0.6c-0.4-0.8-0.7-1.6-1-2.3c-0.7-1.7-1.2-3.5-1.7-5.3C193.7,207.4,204.1,212.3,212.8,218.5z M197.4,216.9
		c8.7,1.1,16.7,5.4,23.8,10.6c-8.7-4.2-19-6.6-28-3.5c-1.9-2.1-3.6-4.4-5-6.9C191.1,216.3,194.5,216.5,197.4,216.9z M221.8,231.4
		c-6.2-2-12.7-2.2-18.8-0.6c-2.7-1-5.1-2.5-7.3-4.3C204.3,224.3,213.9,227.2,221.8,231.4z M203.8,234.4c1.1,2.5,2.1,5.1,3.2,7.6
		c-0.9,0.3-1.8,0.6-2.7,1c-2.1-2.5-4.1-5-6.2-7.4c1.4-0.6,2.9-1.2,4.4-1.6C203,234.2,203.4,234.3,203.8,234.4z M236.4,227.8
		c-1-1.6-1.8-3.2-2.5-4.9c2.3,0.2,4.6,0.4,6.8,0.5c0.2,0,0.4,0,0.6-0.1c0.7,1.7,1.6,3.4,2.7,4.9
		C241.5,228.3,238.9,228.2,236.4,227.8z M242.8,202.4c-2.3-2.1-4.7-4.1-7-6.2c0.7-1.3,1.6-2.5,2.5-3.6c1.9,2.5,3.8,5,5.7,7.5
		c0.1,0.1,0.1,0.2,0.2,0.2C243.7,201,243.3,201.7,242.8,202.4z M191.5,269.3c-3,0.2-6.1,0.4-9.1,0.6c-0.4-1.5-0.7-3-0.8-4.5
		c3,0.4,6.1,0.8,9.1,1.3c0.1,0,0.2,0,0.3,0C191.1,267.5,191.3,268.4,191.5,269.3z M197.5,365.1c-5.2,2.6-9.6,6.9-12.6,11.7
		c-8.1,13.1-6.2,30.3-13,44c-0.7,1.5,0.8,2.8,2.2,2c6.6-4,14.7-4.9,22.1-6.3c7.1-1.3,14.1-3,20.5-6.4c5.4-2.8,10.9-7.7,14-13.5
		c0.9,2.2,2,4.4,3.3,6.4c-0.1,0.1-0.1,0.2-0.2,0.3c-7.4,13.6-20.8,18.6-35.4,20.6c-10.9,1.5-23,1.3-33.3,5.6
		c4-11.2,4.4-23.8,6.1-35.5c2.1-13.4,6.1-26.9,19.4-32.8C192.8,362.8,195.1,364.1,197.5,365.1z M241.9,391.6c-2.4,2-4.8,4-7.2,6
		c-0.8-1.8-1.5-3.7-2-5.6c0,0,0,0,0,0c2.7-1.1,5.4-2.2,8-3.4C241.1,389.6,241.5,390.6,241.9,391.6
		C242,391.6,241.9,391.6,241.9,391.6z M242.5,370.8c-0.1,0-0.2,0-0.3,0c-2.5,0.3-5,0.6-7.6,0.8c0.8-1.8,1.7-3.5,2.9-5.1
		c2.6-0.2,5.3-0.1,7.9-0.1C244.2,367.8,243.3,369.3,242.5,370.8z M266.3,178.7c-2-5.2-2.9-10.6-2.4-16.1c0.7-7.9,5.1-14.5,9.6-20.8
		c7.3-10.2,16.7-19.6,22.4-30.9c4.1,10.2,12.6,18.7,19.1,27.3c9,11.9,14.9,25.2,10.3,40.2c0,0.1-0.1,0.3-0.1,0.4
		c-2.5,0.7-4.9,1.7-7.1,3c2.4-6.6,2-14.3,0.3-20.8c-3.8-14.6-17.3-24.7-20.8-39.3c-0.4-1.7-2.7-1.1-3.2,0.2
		c-4.9,14.2-17.1,24.6-21.9,38.8c-2.1,6.2-2,13.9,0.7,20.2c-2.2-0.8-4.4-1.4-6.7-1.8C266.4,178.9,266.4,178.8,266.3,178.7z
		 M326.9,191.1c-0.2-3.1-0.4-6.2-0.6-9.3c1.5-0.4,2.9-0.6,4.4-0.8c-0.4,3.2-0.9,6.4-1.3,9.5C328.6,190.7,327.8,190.8,326.9,191.1z
		 M285.5,212.3c-0.2-1.6-0.5-3.1-1-4.6c0.1-0.1,0.1-0.1,0.2-0.2c1.6-2,3.1-3.9,4.7-5.9c0.6,1.7,1.1,3.5,1.4,5.3
		C289.1,208.7,287.2,210.5,285.5,212.3z M278.3,183.3c0-0.1-0.1-0.2-0.2-0.4c-2.4-3.5-3.7-7-4-10.5c1.9,0.9,4.6,3.2,6.2,4.8
		c4.2,4.4,6.8,10,8.7,15.9C286.2,189.1,282.5,185.7,278.3,183.3z M298.8,193.3c1.5-8.8,4.2-17.6,9.6-24.6c1.7-2.2,4.6-5,6.8-6.2
		c0.7,2.6,1.2,5.5,1.2,8.3C307.5,174.3,301.9,183.9,298.8,193.3z M305.7,167.1c-3.3,4.3-5.7,9.2-7.3,14.3
		c1.8-10.6,5.5-21.5,12.5-29.3c1.1,1.9,2.1,3.9,3,5.9c0.2,0.4,0.4,0.9,0.5,1.4C310.9,161.1,308,164.2,305.7,167.1z M300,163.8
		c1.3-6.9,3-13.8,5.2-20.4c1.3,2,2.7,3.9,3.9,5.9C305.3,153.5,302.3,158.5,300,163.8z M297.9,158.3c0-8.9-0.1-17.8-0.1-26.7
		c1.5,3,3.4,5.8,5.3,8.7C301,146,299.2,152.1,297.9,158.3z M294.5,129c0.1,10.6,0.1,21.1,0.2,31.7c-1.1-8-2.7-15.9-4.7-23.7
		c0-0.1-0.1-0.3-0.1-0.4C291.5,134.1,293.1,131.5,294.5,129z M287.3,140.3c1.9,7.6,3.4,15.4,4.4,23.3c-2.1-5.9-4.8-11.5-8.5-16.3
		c-0.1-0.1-0.2-0.2-0.3-0.3C284.3,144.8,285.8,142.5,287.3,140.3z M281,150c6.5,9,10,20.5,11.6,31.7c-1.5-4.9-3.6-9.7-6.2-14.3
		c-2.3-3.9-5.2-8.2-8.9-10.9C278.5,154.3,279.7,152.1,281,150z M276.1,159.6c2.7,2.3,4.8,5.3,6.6,8.2c4.4,6.9,7.1,14.7,8.8,22.7
		c-1.9-5.5-4.6-10.7-8.5-15.1c-2.3-2.7-5.4-5.3-8.9-6.3c-0.1,0-0.1,0-0.2,0C274.1,165.9,274.9,162.7,276.1,159.6z M316.4,174.1
		c-0.3,3.8-1.3,7.4-3.3,10.5c-0.1,0.2-0.2,0.4-0.3,0.7c-4.9,4-8.8,9.5-10.9,15.8c-0.5-0.9-0.9-1.8-1.3-2.8c0,0,0,0,0-0.1
		C303,189.1,307.8,178.2,316.4,174.1z M306,199.3c1.6,1.9,3.2,3.8,4.8,5.6c0.1,0.1,0.2,0.2,0.2,0.2c-0.7,1.7-1.2,3.4-1.5,5.2
		c-1.8-1.9-3.6-3.8-5.2-5.8C304.8,202.7,305.3,200.9,306,199.3z M312.7,202c-1.7-2-3.4-4-5.1-6c0.9-1.6,2-3.1,3.1-4.5
		c1.4,2.4,2.8,4.8,4.3,7.2C314.2,199.8,313.4,200.9,312.7,202z M317.4,196.3c-1.4-2.4-2.9-4.8-4.3-7.3c1-0.9,2-1.8,3.1-2.5
		c1,2.7,2.1,5.5,3.1,8.2C318.7,195.2,318.1,195.7,317.4,196.3z M322.3,192.9c-1.1-2.8-2.1-5.5-3.2-8.3c1.3-0.7,2.6-1.3,4-1.9
		c0.2,3.1,0.4,6.3,0.6,9.4C323.2,192.4,322.7,192.7,322.3,192.9z M263.9,191.5c-0.1-3.3-0.2-6.6-0.4-9.8c1.5,0.1,3,0.4,4.5,0.7
		c-0.3,3.2-0.6,6.3-0.9,9.5C266,191.7,265,191.6,263.9,191.5z M270.3,192.7c0.3-3.1,0.6-6.2,0.9-9.3c1.8,0.7,3.6,1.5,5.3,2.5
		c-1.1,2.7-2.2,5.4-3.3,8.1c-0.9-0.5-1.8-0.9-2.8-1.2C270.3,192.8,270.3,192.8,270.3,192.7z M276,195.2c1-2.5,2.1-5,3.1-7.5
		c1.5,1.1,2.8,2.4,4.1,3.7c-1.4,2.3-2.8,4.7-4.2,7c-1-1-2.1-1.9-3.3-2.8C275.8,195.5,275.9,195.4,276,195.2z M281.5,200.3
		c1.3-2.1,2.5-4.2,3.8-6.3c1,1.4,2,2.9,2.8,4.5c0,0,0,0,0,0c-1.6,2-3.2,4-4.8,6c-0.6-1.3-1.4-2.5-2.2-3.6
		C281.2,200.7,281.4,200.5,281.5,200.3z M356.1,191c1,1.2,1.9,2.5,2.8,3.8c-2.4,2-4.8,4-7.2,6c-0.6-1-1.3-1.9-2.1-2.8
		C351.7,195.7,353.9,193.4,356.1,191z M415.4,263.8c-0.1,1.6-0.4,3.1-0.7,4.6c-3.2-0.3-6.3-0.6-9.5-0.9c0.2-1.1,0.4-2.2,0.5-3.4
		C408.9,264,412.2,263.9,415.4,263.8z M413.2,280.1c3.1-2.2,6.8-3.3,10.5-3.6c-1,2.3-3,4.4-4.7,6.1c-6.4,6-15.3,8.9-23.8,10.6
		c7.3-2.3,13.3-6.9,17.5-12.8C412.8,280.4,413,280.3,413.2,280.1z M395,257c-4.2-12.4-25.5-11.5-26.6,2.4
		c-0.5,5.6,4.5,11.6,10.4,11.2c4.7-0.3,8.1-4.1,7.1-8.8c-0.8-4-6.1-5.4-7.3-0.9c-0.6,2.5,2.1,3.7,4.1,3c0,0.2,0,0.5-0.1,0.9
		c-0.3,1.4-1.5,2.1-2.7,2.5c-3.5,1.2-7.4-2.8-8.3-5.8c-0.9-3.5,1.8-6.9,4.4-8.7c3.2-2.2,7.3-1.9,10.7-0.3c6.8,3.1,7.3,12.8,3.2,18.2
		c-4.2,5.4-12.6,5.7-18.5,3.8c-0.3-0.1-0.5-0.1-0.7,0c-2.1-1.4-4.3-2.5-6.8-3.2c3.8-6.8,3.8-14.3,4.1-22.1c0,0,0-0.1,0-0.1
		c0.2-0.1,0.5-0.2,0.7-0.4c10.7-9.9,27.6-5.8,32.7,7.8c5,13.5-6.2,26.7-19.9,26.4c-0.3,0-0.6,0.1-0.9,0.2c-1.6-1.5-3.1-3.1-4.8-4.5
		C387.8,279.1,399.5,270.3,395,257z M361.8,220.2c-2.6,0.3-5.2,0.6-7.8,0.9c0.5-1.3,0.8-2.7,1-4.1c0.2,0,0.4,0,0.6-0.1
		c2.5-0.6,5-1.3,7.4-1.9c-0.2,1.7-0.6,3.5-1.1,5.1C361.9,220.2,361.9,220.2,361.8,220.2z M363.3,211.8c-2.7,0.7-5.3,1.4-8,2
		c0-1.4-0.1-2.9-0.3-4.3c2.7-1.1,5.3-2.2,8-3.3C363.2,208.1,363.4,210,363.3,211.8z M365.9,204.2c0.2-0.2,0.3-0.4,0.3-0.7
		c0.7-4.2,2.3-7.5,4.5-10.2c1,2.4,1.2,5.7,1.1,8.3c-0.3,7.4-3.4,14.5-7.3,20.9C366.9,216.5,367.2,210.2,365.9,204.2z M404.6,238.9
		c-2.5,1.9-4.9,3.7-7.4,5.6c0,0-0.1,0.1-0.1,0.1c-0.8-0.6-1.5-1.1-2.4-1.5c2-2.3,4-4.6,6.1-6.9C402.1,237,403.4,237.9,404.6,238.9z
		 M391.8,241.7c-0.6-0.2-1.1-0.4-1.7-0.6c1.2-2.6,2.4-5.3,3.5-7.9c1.5,0.4,2.9,0.9,4.3,1.6C395.9,237,393.8,239.4,391.8,241.7z
		 M383,232.1c-0.7,2.7-1.4,5.4-2.1,8.1c-1.3,0.1-2.7,0.4-4,0.7c0.2-2.6,0.4-5.2,0.6-7.8C379.4,232.6,381.2,232.2,383,232.1z
		 M386.3,232c1.1,0,2.1,0.1,3.2,0.3c0.2,0.2,0.5,0.3,0.9,0.3c-1.2,2.6-2.3,5.2-3.5,7.8c-0.9-0.1-1.8-0.2-2.7-0.3
		C385,237.4,385.7,234.7,386.3,232z M376,230.3c-0.2,0-0.5,0.1-0.7,0.2c-2.2,0.7-4.3,1.6-6.3,2.7c0.1-0.6,0.3-1.1,0.4-1.6
		c8.2-5.3,20.3-10.5,30.2-7c-2.6,2.2-5.5,3.9-8.8,4.8C386,228.6,380.9,228.9,376,230.3z M402.3,222.1c-9.2-4-20.4-0.8-29.3,3.8
		c9.8-6.6,22.1-10.1,33.8-10.1C405.6,218.1,404,220.2,402.3,222.1z M408.5,212.7c-9.8-0.3-19.9,1.9-28.9,6.1
		c9.6-6.2,21.1-10.2,31.7-13.5c-0.1,0.2-0.1,0.4-0.2,0.6C410.5,208.2,409.6,210.5,408.5,212.7z M412.2,201.8c-0.1,0-0.2,0-0.4,0.1
		c-8,2.5-16.5,5.4-24.4,9.2c8.3-6.2,17.3-11.5,26.2-16.2C413.1,197.2,412.7,199.5,412.2,201.8z M414.3,191c-5.8,3-11.7,6.3-17.4,9.9
		c6.6-6.7,13.3-13.4,19.9-20.1C415.7,184.1,414.9,187.5,414.3,191z M392.7,200.7c5.2-6.8,10-14,14.3-21.3c0.1-0.1,0.1-0.2,0.1-0.3
		c3.2-0.6,6.3-1.3,9.1-2.2C408.4,184.8,400.6,192.8,392.7,200.7z M386.3,203.9c3.7-7.1,6.6-14.5,8.8-22c0-0.2,0.1-0.3,0.1-0.4
		c2.7-0.6,5.3-1.1,8-1.6C398.1,188.2,392.4,196.3,386.3,203.9z M375.6,215.2c5.1-9.5,8.3-20.2,8.9-30.7c2.3-0.8,4.6-1.5,7.1-2.1
		C388.2,193.8,382.8,205.4,375.6,215.2z M370.7,217.6c2.4-5.1,4.1-10.5,4.4-16.2c0.2-3.4-0.1-7.4-1.8-10.4c0-0.1-0.1-0.1-0.1-0.2
		c2.3-2,5-3.6,7.9-4.9C380.3,196.8,376.5,207.9,370.7,217.6z M368.4,237c0.2,0,0.4-0.1,0.5-0.2c1.7-1.1,3.4-1.9,5.2-2.6
		c-0.2,2.5-0.4,5-0.6,7.5c0,0.1,0,0.2,0,0.3c-1.9,0.8-3.8,1.9-5.5,3.2C368.1,242.5,368.1,239.7,368.4,237z M398.9,288.4
		C398.9,288.4,398.9,288.3,398.9,288.4c-2.1-1.7-4.1-3.3-6.2-4.9c1.2-0.6,2.3-1.3,3.4-2.1c0.1,0.2,0.3,0.4,0.5,0.5
		c2.2,1.3,4.3,2.6,6.5,3.9C401.8,286.7,400.4,287.6,398.9,288.4z M405.8,283.5c-2.4-1.4-4.8-2.8-7.2-4.3c1-1,1.9-2,2.7-3.1
		c0,0,0,0,0,0c2.7,1.1,5.4,2.2,8.1,3.3C408.4,280.9,407.2,282.2,405.8,283.5z M411.3,276.7c-2.7-1.1-5.5-2.3-8.2-3.4
		c0.5-0.9,0.9-1.8,1.2-2.7c3.2,0.3,6.3,0.6,9.5,0.9C413.1,273.3,412.3,275,411.3,276.7z M389.2,284.8c0.1,0.1,0.2,0.2,0.3,0.3
		c2,1.6,4,3.2,5.9,4.7c-1.8,0.7-3.8,1.2-5.8,1.5c-0.1,0-0.3,0.1-0.4,0.1c-2-1.8-3.8-3.8-5.7-5.6
		C385.6,285.7,387.5,285.4,389.2,284.8z M391.1,305.6c1.9,0.4,3.7,1,5.4,1.8c-1.9,1.6-3.8,3.2-5.7,4.9c-0.1,0-0.1,0.1-0.1,0.1
		c-1.6-0.7-3.4-1.2-5.1-1.5C387.3,309.1,389.2,307.3,391.1,305.6z M399.4,308.9c1.7,1,3.3,2.1,4.7,3.3c-2.4,1.4-4.7,2.8-7.1,4.2
		c-1.1-0.9-2.3-1.7-3.5-2.5C395.5,312.2,397.4,310.5,399.4,308.9z M406.4,314.4c1,1,1.9,2.1,2.7,3.3c-2.7,1-5.3,2-8,3.1
		c-0.5-0.8-1.1-1.5-1.8-2.2C401.7,317.2,404,315.8,406.4,314.4z M402.7,323.4c2.7-1,5.4-2,8-3.1c0.7,1.3,1.4,2.7,1.9,4.2
		c-3.1,0.2-6.1,0.4-9.2,0.6C403.3,324.5,403,323.9,402.7,323.4z M411.3,315.1c-4.2-5.6-10.1-9.9-17.2-12c0.4-0.3,0.8-0.6,1.2-0.9
		c9.4,2,22,6.9,26.6,16.3c-3.7-0.3-7.2-1.4-10.2-3.3C411.6,315.2,411.4,315.2,411.3,315.1z M425.6,318.7
		C422,309.6,412.3,304,403,301c8.5,1.5,16.9,4.1,23.9,9.3c2.4,1.8,5.6,5.1,6.8,7.4C431.1,318.3,428.3,318.7,425.6,318.7z
		 M436.9,316.6c-1.5-3.3-4.4-6.1-7.2-8.3c-4.4-3.5-9.5-6-14.9-7.7c10.6,1.8,21.4,5.7,29.2,12.7c-1.9,1.1-3.8,2.1-5.8,2.9
		C437.7,316.3,437.3,316.4,436.9,316.6z M447,311.4C447,311.4,447,311.4,447,311.4c-4.1-3.9-9.1-6.9-14.5-9.2
		c6.9,1.3,13.8,3.1,20.4,5.3C450.9,308.8,448.9,310.1,447,311.4z M456.1,305.2c-6.1-2.1-12.3-3.9-18.7-5.2c9.2,0,18.4-0.1,27.6-0.1
		C462,301.4,459,303.3,456.1,305.2z M434.1,296.9c8.4-1.2,16.7-2.8,24.8-4.9c2.6,1.7,5.2,3.3,7.9,4.7
		C455.9,296.8,445,296.8,434.1,296.9z M431.4,294.1c6.3-2.1,12.2-5,17.3-8.9c0.1,0,0.1-0.1,0.2-0.1c2.2,1.5,4.4,3,6.6,4.6
		C447.6,291.6,439.5,293.1,431.4,294.1z M414.4,294.9c5.7-1.6,11.1-3.9,16.1-7.1c3.3-2.1,6.8-4.8,9-8.1c2.3,1.1,4.5,2.3,6.6,3.7
		C437.1,289.8,425.7,293.3,414.4,294.9z M428.9,285.2c-7.4,4.9-16.1,7.4-24.9,8.9c6-2,11.8-4.8,16.7-9c2.6-2.2,5.3-5.3,6.3-8.6
		c3.3,0.1,6.6,0.9,9.6,2C434.7,281.2,431.6,283.4,428.9,285.2z M399.4,246.6c2.5-1.9,5-3.8,7.5-5.7c1.1,1.1,2.1,2.3,3,3.6
		c-2.8,1.6-5.5,3.1-8.3,4.7C400.9,248.3,400.2,247.4,399.4,246.6z M396.2,230.6c7.4-3.8,13.2-11.3,16.1-18.5
		c4.9-12.2,4-26.9,11-38.1c1-1.6-0.9-2.6-2.2-2c-14,6.8-31,5-44.7,12.9c-5.1,3-9.8,8.2-12.1,14c-0.9-2.3-2-4.5-3.4-6.5
		c0,0,0,0,0-0.1c2.2-5,5.2-9.2,9.3-12.8c6.4-5.5,14.9-7.1,22.9-8.3c12.1-1.9,25.1-1.9,36.8-6c-4.2,9.7-4.3,21.1-5.7,31.3
		c-2,15.3-6.9,29.5-21.2,37.3C400.9,232.4,398.6,231.3,396.2,230.6z M353.1,203.6c2.4-2,4.8-4,7.2-6c0.9,1.8,1.5,3.7,2,5.6
		c-2.7,1.1-5.4,2.2-8.1,3.4C353.9,205.5,353.5,204.6,353.1,203.6C353.1,203.6,353.1,203.6,353.1,203.6z M352.6,224.3
		c0.1,0,0.2,0,0.3,0c2.6-0.3,5.2-0.6,7.8-0.9c-0.7,1.6-1.6,3.2-2.6,4.7c-2.7,0.1-5.3,0-8,0C351.1,226.9,351.9,225.7,352.6,224.3z
		 M371.2,353.9c0,0.1,0,0.2,0,0.4c0.3,2.5,0.6,4.9,0.8,7.3c-1.6-0.8-3.2-1.7-4.8-2.8c-0.2-2.5-0.1-5.1-0.1-7.6
		C368.5,352.3,369.8,353.2,371.2,353.9z M391.8,354.3c2.1,2.5,4.1,5,6.2,7.4c-1.7,0.8-3.6,1.4-5.4,1.9c-1.1-2.8-2.3-5.5-3.4-8.2
		C390,355.1,390.9,354.7,391.8,354.3z M360.2,397.7c-2.3-2.1-4.7-4.1-7-6.2c0.2-0.5,0.4-1,0.5-1.5c2.7,1.2,5.3,2.4,8,3.6
		C361.3,394.9,360.8,396.3,360.2,397.7z M354.8,384.1c2.7,0.7,5.3,1.4,8,2.1c0,1.3-0.1,2.7-0.3,4c0,0,0,0.1-0.1,0.1
		c-2.6-1.2-5.2-2.3-7.9-3.5C354.6,385.9,354.7,385,354.8,384.1z M362.6,382.8c-2.6-0.7-5.3-1.4-7.9-2c-0.1-1.4-0.3-2.7-0.7-4.1
		c2.5,0.2,5,0.4,7.6,0.6C362.2,379.1,362.5,381,362.6,382.8z M364.6,375.7c0.1-0.4,0-0.8-0.4-1.1c-0.6-1.8-1.4-3.6-2.3-5.4
		c0.2,0,0.5,0.1,0.7,0.1c0,0,0,0,0,0c5.4,8.1,10.9,20.8,7.6,30.6c-2.2-2.7-3.9-5.7-4.8-9.1C366.3,385.9,366.1,380.7,364.6,375.7z
		 M369.8,374.9c4.7,6.9,8.5,14.4,9.9,22.7c0.4,2.6,0.5,5.4,0.1,8c-0.1,0.6-0.2,1.2-0.4,1.8c-2.4-1.4-4.6-3-6.6-4.9
		C376.5,393.8,374,383.5,369.8,374.9z M383,397.7c-0.6-5.2-2.3-10.1-4.5-14.7c6,8.6,10.7,18.7,11.2,28.7c-0.2-0.1-0.4-0.1-0.7-0.2
		c-2.3-0.7-4.6-1.5-6.8-2.6C383.5,405.4,383.4,401.3,383,397.7z M389.5,396.3c3.9,5.7,7.3,11.6,10.4,17.6c-2.3-0.4-4.6-0.9-6.8-1.4
		c0,0,0-0.1,0-0.1C392.9,407,391.6,401.5,389.5,396.3z M404,414.7c-2.7-5.5-5.7-11-9-16.2c6.2,6.2,12.5,12.4,18.7,18.6
		C410.5,416,407.3,415.3,404,414.7z M395.4,394.2c6.4,4.8,13.1,9.2,19.9,13.2c0.1,0,0.1,0.1,0.2,0.1c0.6,2.9,1.2,5.8,2,8.6
		C410.1,408.8,402.7,401.5,395.4,394.2z M395.1,389.9c5.6,2.7,11.6,4.7,17.6,5.5c0.2,0,0.3,0,0.5,0c0.5,2.6,1,5.2,1.4,7.9
		C407.9,399.2,401.4,394.7,395.1,389.9z M382.9,378.6c4.7,2.5,9.6,4.4,14.7,5.6c3.9,0.9,8.5,1.5,12.6,0.6c0.9,2.4,1.6,4.8,2.2,7.3
		C402,390.4,391.8,385.1,382.9,378.6z M399.3,381.3c-9-1.8-17.3-6.4-24.8-11.8c5.9,3.3,12.2,5.8,18.9,6.2c3.2,0.2,7.2-0.1,10.1-1.8
		c2.2,2.4,4,5.1,5.4,7.9c0,0.1,0.1,0.2,0.1,0.3C406.3,382.3,402.2,381.9,399.3,381.3z M394.8,372.5c-6.6,0-13.2-2.7-19.1-6.1
		c5.5,1.5,11.1,1.6,16.5,0.4c3.3,0.8,6.3,2.5,9,4.7C399.3,372.4,396.8,372.5,394.8,372.5z M385.9,356.2c0,0,0,0.1,0,0.1
		c1.1,2.6,2.2,5.3,3.3,7.9c-1.8,0.2-3.5,0.3-5.3,0.2c-0.7-2.7-1.3-5.3-2-8C383.2,356.5,384.6,356.4,385.9,356.2z M378.6,357
		c0.6,2.4,1.2,4.8,1.8,7.1c-1.6-0.3-3.3-0.6-4.9-1.2c0,0,0,0,0,0c-0.3-2.5-0.6-5.1-0.9-7.6c1.3,0.4,2.6,0.7,3.9,0.9
		C378.5,356.5,378.5,356.8,378.6,357z M357.9,368.8C357.9,368.9,357.9,368.9,357.9,368.8c1.1,1.7,1.9,3.4,2.6,5.2
		c-2.3-0.2-4.6-0.4-6.8-0.5c-0.2,0-0.4,0-0.6,0.1c-0.7-1.7-1.6-3.4-2.7-5C352.9,368.7,355.4,368.7,357.9,368.8z M364.1,396.6
		c3.8,7.6,11.7,13.3,19.2,16.4c12,4.9,26.3,3.9,37.5,10.7c1.4,0.9,2.9-1,2.3-2.3c-6.8-14-5-31-12.9-44.7c-2.8-4.8-7.4-9.1-12.7-11.5
		c2.2-0.9,4.3-2,6.3-3.4c25.9,12.5,18.1,44.9,25.8,68.3c-9.8-4.1-21.4-4.2-31.7-5.6c-15.1-2.1-29-7.1-36.6-21.3
		c0-0.1-0.1-0.2-0.2-0.2C362.3,401,363.3,398.8,364.1,396.6z M403.7,358.3c-0.9-0.1-1.8,0.6-2,1.4c-0.2,0.1-0.5,0.3-0.7,0.4
		c-2.1-2.5-4.2-5-6.2-7.5c0.9-0.6,1.7-1.2,2.5-1.9c2.4,2.3,4.9,4.5,7.3,6.8C404.3,357.8,404,358.1,403.7,358.3z M367.3,346.8
		c0,0-0.1-0.1-0.1-0.1c0-2-0.1-4-0.2-5.9c7.9,8,21.1,9.4,27.6-2.2c6.6-12-7.6-24.7-19-18.3c-10.1,5.7-1.5,24.3,8.3,16.2
		c3.2-2.6,2.5-9.8-2.6-7.5c-2.8,1.3-1.8,4.6,0.3,5.5c-0.6,0.5-1.3,0.8-2,0.8c-1.7,0.2-3.1-1-4-2.2c-2.1-2.8-1.7-7.1,0.7-9.5
		c4.9-5,12.8-0.7,15.6,4.2c4,7.2-2.7,15.5-9.9,16.4c-6.5,0.8-12.6-4.5-15.6-9.9c-0.5-3-1.4-5.8-2.9-8.6c6.6-2.2,12.2-6.2,17.5-10.6
		c0.5-0.4,1-0.9,1.5-1.3c14.4,0.7,23.6,15.6,17.5,28.8C394,355.6,376.6,356.6,367.3,346.8z M404.6,328.1c3-0.2,6.1-0.4,9.1-0.6
		c0.4,1.5,0.7,3,0.8,4.5c-3-0.4-6.1-0.8-9.1-1.3c-0.1,0-0.2,0-0.3,0C405,329.9,404.8,329,404.6,328.1z M415.5,260.6
		c-3.3,0.1-6.5,0.2-9.8,0.4c-0.1-1.3-0.3-2.5-0.6-3.8c0,0,0.1,0,0.1,0c3.1-0.8,6.3-1.6,9.4-2.4C415.2,256.7,415.4,258.7,415.5,260.6
		z M404.5,254.2c-0.1,0-0.2,0.1-0.2,0.1c-0.3-0.8-0.7-1.6-1.1-2.4c2.8-1.6,5.6-3.2,8.4-4.8c0.8,1.4,1.5,2.9,2.1,4.4
		c0,0.1,0.1,0.2,0.1,0.3C410.6,252.6,407.6,253.4,404.5,254.2z M345.8,228.3C345.8,228.3,345.8,228.3,345.8,228.3
		c-1.9,0.1-4.2,0.2-6.5,0.5c8.2-7.8,10-21.2-1.8-27.7c-11.9-6.6-25,7.7-18.6,19.1c2.6,4.7,9.3,5.7,13.8,3.2c3.9-2.2,6.7-8,2.6-11.6
		c-1.6-1.5-4-2.7-6.2-1.7c-1.6,0.7-2.3,2.8-1.6,4.4c1.2,2.7,4.5,1.8,5.5-0.2c0,0,0.1,0.1,0.1,0.1c0.4,0.5,0.6,1,0.7,1.6
		c0.5,1.7-0.7,3.3-2,4.3c-2.9,2.2-7.5,1.5-9.7-1.2c-4.4-5.3-0.8-13.1,4.8-15.6c7.1-3.2,14.3,3.1,15.7,9.8
		c1.5,6.9-4.6,13.6-10.2,16.5c-0.2,0.1-0.3,0.2-0.4,0.3c-2.2,0.7-4.2,1.6-5.7,3c-2.5-7.9-8.4-13.7-14-19.7c0,0,0-0.1,0-0.1
		c0.5-14.7,15.2-23.8,28.6-17.7C354,201.5,355.4,218.9,345.8,228.3z M332.7,190.3c0.4-3.1,0.9-6.3,1.3-9.4c1.5,0,3,0.2,4.5,0.4
		c-0.9,3.1-1.7,6.2-2.6,9.3C334.9,190.4,333.8,190.3,332.7,190.3z M260.2,181.6c0.1,3.3,0.3,6.6,0.4,10c-1.2,0.1-2.4,0.3-3.6,0.6
		c0-0.1,0-0.2-0.1-0.3c-0.8-3.1-1.6-6.3-2.4-9.4c0,0,0,0,0,0C256.4,181.9,258.3,181.6,260.2,181.6z M255.9,195.6
		c13.5-5,26.7,6.5,26.4,20.1c0,0,0,0,0,0c-1.4,1.6-2.8,3.3-4.1,5c0.3-5-0.9-10-4.1-14c-4.1-5.2-11.5-6.4-17.4-4.4
		c-13,4.4-11.5,25.3,2.6,26.5c5.8,0.5,10.6-5.1,10.9-10.5c0.3-4.9-4.5-7.7-8.8-6.8c-3.9,0.8-5.7,6-1.1,7.1c2.5,0.6,3.9-2.2,3.3-4.2
		c0.2,0,0.5,0.1,0.9,0.2c1.2,0.4,1.9,1.6,2.3,2.8c1.2,3.7-2.7,7.8-6.1,8.3c-8.1,1.2-11.4-9.6-8.7-15.4c3.2-6.9,12.7-7.1,18-3
		c5.4,4.2,5.8,12.6,3.9,18.6c-0.2,0.5-0.1,0.9,0.1,1.2c-0.9,1.7-1.7,3.6-2.4,5.4c-6.7-3.9-14.3-3.8-21.9-4.1c-0.5,0-1,0-1.5,0
		c0,0,0,0,0,0C238.5,217.7,242.3,200.7,255.9,195.6z M246.5,197.8c-1.9-2.6-3.9-5.1-5.8-7.7c1-1,2.1-2,3.3-2.8
		c1.6,2.8,3.2,5.7,4.9,8.5C248,196.4,247.2,197.1,246.5,197.8z M184.1,249.7C184.1,249.7,184.1,249.7,184.1,249.7
		c2.8,1.6,5.6,3.3,8.4,4.9c0.1,0.1,0.2,0.1,0.3,0.1c-0.3,0.8-0.6,1.5-0.9,2.3c-3.2-0.9-6.3-1.7-9.5-2.6c0.2-0.9,0.5-1.8,0.8-2.8
		C183.5,251,183.8,250.4,184.1,249.7z M191.1,260.2c-0.2,1.1-0.3,2.2-0.3,3.2c-3.1-0.4-6.2-0.9-9.3-1.3c0-1.5,0.1-3,0.3-4.5
		C184.9,258.5,188,259.3,191.1,260.2z M181.2,336.1c3.3-0.1,6.5-0.2,9.8-0.4c0.1,1.3,0.3,2.5,0.6,3.8c0,0-0.1,0-0.1,0
		c-3.1,0.8-6.3,1.6-9.4,2.4c0,0,0,0,0,0C181.5,340.1,181.2,338.1,181.2,336.1z M192.2,342.6c0.1,0,0.2-0.1,0.2-0.1
		c0.3,0.8,0.7,1.6,1.1,2.4c-2.8,1.6-5.6,3.2-8.4,4.8c-0.8-1.4-1.5-2.9-2.1-4.4c0-0.1-0.1-0.2-0.1-0.3
		C186,344.2,189.1,343.4,192.2,342.6z M249.4,366.7c0.1-0.1,0.1-0.1,0.2-0.2c2.1,0,4.2,0,6.3-0.1c-8.3,7.8-10.2,21.2,1.6,27.8
		c11.9,6.6,25-7.7,18.6-19.1c-2.6-4.7-9.3-5.7-13.8-3.2c-3.9,2.2-6.7,8-2.6,11.6c1.6,1.5,4,2.7,6.2,1.7c1.6-0.7,2.3-2.8,1.6-4.4
		c-1.2-2.7-4.5-1.8-5.5,0.2c0,0-0.1-0.1-0.1-0.1c-0.4-0.5-0.6-1-0.7-1.6c-0.5-1.7,0.7-3.3,2-4.3c2.9-2.2,7.5-1.5,9.7,1.2
		c4.4,5.3,0.8,13.1-4.8,15.6c-7.1,3.2-14.3-3.1-15.7-9.8c-1.4-6.7,4.2-13.1,9.6-16.2c3-0.5,6-1.3,8.7-2.8
		c2.2,6.5,6.1,12.2,10.6,17.4c0.4,0.5,0.9,1,1.4,1.6c0,0,0,0,0,0c-0.5,14.7-15.2,23.8-28.6,17.7C241,393.6,239.7,376,249.4,366.7z
		 M262.3,404.8c-0.4,3.1-0.9,6.3-1.3,9.4c-1.5,0-3-0.2-4.5-0.4c0.9-3.1,1.7-6.2,2.6-9.3C260.2,404.8,261.2,404.8,262.3,404.8z
		 M338.6,401.4c-13.5,5-26.7-6.5-26.4-20.1c0,0,0-0.1,0-0.1c1.4-1.4,2.7-2.8,4-4.2c-0.2,4.8,1.1,9.5,4.1,13.3
		c4.1,5.2,11.5,6.4,17.4,4.4c13-4.4,11.5-25.3-2.6-26.5c-5.8-0.5-10.6,5.1-10.9,10.5c-0.3,4.9,4.5,7.7,8.8,6.8
		c3.9-0.8,5.7-6,1.1-7.1c-2.5-0.6-3.9,2.2-3.3,4.2c-0.2,0-0.5-0.1-0.9-0.2c-1.2-0.4-1.9-1.6-2.3-2.8c-1.2-3.7,2.7-7.8,6.1-8.3
		c8.1-1.2,11.4,9.6,8.7,15.4c-3.2,6.9-12.7,7.1-18,3c-5.1-4-5.7-11.8-4.2-17.6c1.9-2.6,3.4-5.4,4.4-8.6c6.6,3.3,14,4.4,21.4,4.9
		c0,0.1,0.1,0.1,0.1,0.2C356,379.2,352.2,396.3,338.6,401.4z M348,399.2c1.9,2.6,3.9,5.1,5.8,7.7c-1,1-2.1,2-3.3,2.8
		c-1.6-2.8-3.2-5.7-4.9-8.5C346.5,400.6,347.3,399.9,348,399.2z M408.4,353.7c-0.4,0.5-0.9,1.1-1.4,1.6c-2.5-2.3-4.9-4.6-7.4-6.9
		c0.8-0.9,1.5-1.9,2.2-2.9c0.1,0.1,0.1,0.1,0.2,0.1c2.8,1.6,5.6,3.3,8.3,4.9c0.1,0,0.1,0,0.2,0.1c-0.4,0.6-0.7,1.2-1.2,1.8
		C408.8,352.7,408.5,353.2,408.4,353.7z M412,347.7C412,347.7,412,347.7,412,347.7c-2.8-1.6-5.6-3.3-8.4-4.9
		c-0.1-0.1-0.2-0.1-0.3-0.1c0.3-0.8,0.6-1.5,0.9-2.3c3.2,0.9,6.3,1.7,9.5,2.6c-0.2,0.9-0.5,1.8-0.8,2.8
		C412.6,346.4,412.3,347.1,412,347.7z M405,337.2c0.2-1.1,0.3-2.2,0.3-3.2c3.1,0.4,6.2,0.9,9.3,1.3c0,1.5-0.1,3-0.3,4.5
		C411.2,338.9,408.1,338.1,405,337.2z M494.9,280.4c2.9,3.5,0.6,8.8-1.5,12.3c-4-2.5-7.9-5.5-11.8-8.7
		C484.7,281,491.2,276,494.9,280.4z M481.4,268.8c3.6,3-0.2,9.7-2.5,13.1c-3.3-2.8-6.7-5.6-10-8.3
		C471.9,270.5,477.5,265.6,481.4,268.8z M468.3,257.7c4.4,3,0.6,10-2,13.8c-3.7-2.9-7.4-5.7-11.2-8.1
		C458.3,260,463.9,254.8,468.3,257.7z M450,249.3c5.9,1,3.9,8.3,2.1,12.4c-4.1-2.3-8.3-4.1-12.7-5.1
		C441.1,252.2,445,248.5,450,249.3z M429.1,250.4c4.3-0.8,6.9,1.7,6.9,5.5c-5.3-0.7-10.8-0.2-16.7,1.9
		C421.4,254,424.7,251.2,429.1,250.4z M423.8,238.4c-3,3.5-8.1,3.7-12.2,2.5c-0.2-0.3-0.5-0.6-0.7-0.8c5-2.9,9-6.6,12.2-10.9
		C426.1,231.8,426.6,235.2,423.8,238.4z M437.9,224.3c-3,3.9-8.8,3.9-12.9,2.1c2.3-3.6,4.2-7.6,5.7-11.8c0.1,0,0.1,0.1,0.2,0.1
		C434.7,216,441.7,219.3,437.9,224.3z M445.8,205.8c0.5,6.2-9.9,6.3-13.7,6c-0.2,0-0.4,0-0.5,0.1c1.1-3.6,2-7.4,2.7-11.2
		c0.1-0.8,0.3-1.7,0.4-2.5C438.9,198.8,445.4,200.6,445.8,205.8z M447.9,189.2c0.4,6.4-8.7,6.4-12.8,5.7c0.5-4.3,0.9-8.7,1.4-13.1
		C441.1,182.2,447.5,183.8,447.9,189.2z M450,172.3c0.5,5.8-9.2,6.4-13,6.5c0.6-5,1.5-9.9,2.9-14.5C444,165.2,449.6,167.4,450,172.3
		z M480.5,116.7c4,6.1-9.9,12.9-17.2,16C466.9,125.3,475.9,109.6,480.5,116.7z M446.2,145.1c3.7,1.2,4.9,5.7,4,9.1
		c-1.1,4.2-5.2,6.3-9.2,6.6c0.8-2.1,1.7-4.1,2.8-6c0.7-1.2-0.5-2.7-1.8-2.2c-2.2,0.9-4.5,1.7-6.9,2.4
		C435.1,149.3,440,143.1,446.2,145.1z M423.6,145.8c4.7-0.3,7.1,6,8,10c-4.6,1-9.4,1.7-14.3,2.2
		C417.5,153.6,418.3,146.1,423.6,145.8z M406,147.2c4.8-0.8,7,7.1,7.8,11.2c-4.2,0.4-8.5,0.8-12.8,1.2
		C401,155.4,401.4,147.9,406,147.2z M389.2,148.6c5.1-1.6,7.6,6.9,8.4,11.3c-4.6,0.5-9.1,1.2-13.4,2.2
		C383.9,157.4,384.1,150.2,389.2,148.6z M370.3,155.7c4.9-3.6,8.7,3.2,10.3,7.4c-4.5,1.3-8.7,3-12.5,5.3
		C366.4,164.2,366.3,158.6,370.3,155.7z M356.1,171.7c2.2-3.8,6.2-4.6,9.1-1.4c-4.2,3.2-7.8,7.4-10.5,12.9
		C353.7,179.3,354,175.3,356.1,171.7z M346.4,183.7C346.4,183.7,346.4,183.7,346.4,183.7c-1.7,2.8-3.3,5.6-4.9,8.4
		c0,0.1,0,0.1-0.1,0.2c-0.8-0.4-1.6-0.6-2.4-0.9c0.9-3.1,1.7-6.2,2.6-9.4c1.5,0.4,3,0.9,4.5,1.6
		C346.3,183.6,346.4,183.6,346.4,183.7z M343.3,166.8c0.3,4.8-3.1,8.6-7,10.8c-0.3,0-0.5,0-0.8,0c1.6-5.7,1.8-11.3,1-16.7
		C340.3,160.6,343,162.8,343.3,166.8z M343.3,147.4c0.3,4.6-3.4,8.6-7.4,10.2c-0.9-4.3-2.5-8.5-4.4-12.6c0.2,0,0.4-0.1,0.5-0.2
		C335.9,142.9,342.9,141,343.3,147.4z M336.1,128.6c3.8,4.6-2.8,11.1-6,13.8c-1.2-2.3-2.5-4.5-4-6.7c-1.1-1.7-2.3-3.4-3.6-5.1
		C326,128.1,332.6,124.4,336.1,128.6z M326.1,115.7c3.5,4.5-1.9,10.1-5.4,12.5c-2.7-3.5-5.6-6.9-8.3-10.4c0.1,0,0.1-0.1,0.2-0.1
		C315.9,114.7,322.5,111,326.1,115.7z M315,101.6c4.4,3.7-1.8,11-4.5,13.8c-3.1-4-5.9-8.1-8.2-12.4
		C305.9,100.7,311.3,98.4,315,101.6z M293.3,42.9c1.7-3.3,4.6-1.2,5.8,0.8c0.8,1.4,0.8,3.3,0.8,4.8c0,3-0.8,6-1.5,8.9
		c-0.7,2.6-1.6,5.1-2.6,7.6C292.9,58.2,290,49.2,293.3,42.9z M289.5,90.2c0.9-4.4,4.8-6.7,9-5.2c6.4,2.3,5.6,10.3,2.2,14.8
		c-0.9-2-1.6-4-2.2-6.1c-0.5-1.7-2.6-1.1-3.2,0.2c-0.8,2-1.8,4-2.9,6C289.8,97.3,288.7,94,289.5,90.2z M277.6,101.6
		c3-3.8,9.5-0.9,13,1.3c-2.5,4-5.4,7.8-8.6,11.7C279.1,111.5,274.4,105.7,277.6,101.6z M266.1,115.2c2.2-4.8,10.6,0.1,13.7,2.2
		c-2.7,3.3-5.5,6.6-8.2,9.9C268.6,124.3,264.2,119.4,266.1,115.2z M255.5,127.8c2.5-4.8,10.5-0.2,13.9,2.1c-2.9,3.6-5.6,7.3-8,11
		C257.9,137.8,253.1,132.5,255.5,127.8z M247,147c-0.1-6.9,8.2-4.7,12.5-2.9c-2.3,4.1-4.1,8.2-5.1,12.6
		C250.4,154.9,247.1,151.7,247,147z M248.4,167.4c-1-4.2,1.1-7.5,5.3-7.3c-0.8,5.2-0.3,10.7,1.7,16.6
		C251.9,174.5,249.4,171.4,248.4,167.4z M251.1,183.4c0.1,0,0.2-0.1,0.2-0.1c0,0,0,0.1,0,0.1c0.8,3.1,1.6,6.3,2.4,9.4
		c0,0.1,0.1,0.2,0.1,0.3c-0.7,0.3-1.4,0.6-2.1,1c0,0,0,0,0,0c-1.6-2.9-3.3-5.7-4.9-8.6C248.1,184.7,249.6,184,251.1,183.4z
		 M238.8,172.9c2.7,3.3,2.8,7.9,1.8,11.9c-2.6-5.3-6.1-9.3-10.1-12.4C233,169.6,236.2,169.7,238.8,172.9z M225.4,157.8
		c4.1,2.7,4,8.5,2.3,12.7c-3.8-2.4-8.1-4.1-12.6-5.5C216.7,160.8,220.2,154.4,225.4,157.8z M206.4,150.6c5.1,0.8,5.4,8.9,5.2,13.5
		c-4.3-1-8.9-1.7-13.5-2.3C199,157.4,201.1,149.8,206.4,150.6z M189.7,149c4.7,0.5,5.1,8.3,5,12.5c-4.3-0.5-8.6-0.9-12.9-1.3
		C182.7,156.1,184.7,148.4,189.7,149z M172,147.4c5.3-0.4,6.3,8.1,6.5,12.3c-5-0.6-9.8-1.3-14.4-2.4
		C165.1,153.2,167.3,147.8,172,147.4z M116,115.6c4.2-5.2,11.7,7.3,13.2,9.9c1.3,2.2,2.4,4.5,3.4,6.9c-1.9-0.9-3.7-1.8-5.5-2.7
		C123.7,127.8,111.7,120.9,116,115.6z M146.2,149.6c2.1-4.3,7-3.9,10.4-1.6c2.9,2,4.1,5.2,4.2,8.5c-2.2-0.6-4.3-1.4-6.4-2.3
		c-1.4-0.6-3,0.9-2.3,2.3c1,1.9,1.9,3.8,2.6,5.8C148.7,161.5,143.1,155.9,146.2,149.6z M145.7,173.7c-0.3-4.8,6.1-7.2,10-8.1
		c1.2,4.3,1.8,8.8,2.4,13.1c0.1,0.5,0.1,1,0.2,1.4C154,180.1,146.1,179.2,145.7,173.7z M147.8,191.8c-1.8-6,6.8-8.1,10.9-8.4
		c0.5,4.4,1,8.8,1.6,13.2C155.8,197.2,149.4,197,147.8,191.8z M149.7,208.1c-1.7-5.6,7.4-7.9,11.1-8.5c0.2,1.7,0.5,3.4,0.8,5
		c0.5,2.9,1.2,5.8,2,8.7C158.9,213.6,151.3,213.5,149.7,208.1z M157.6,226c-4.6-4.7,2.7-8.4,6.4-9.6c0.2-0.1,0.3-0.1,0.4-0.2
		c1.4,4.3,3.3,8.3,5.7,12.1C165.9,230,160.9,229.3,157.6,226z M171.7,240.3c-3.1-2.8-2.9-6.9,0.2-9.5c3.4,4.6,7.7,8.6,13.1,11.6
		c-0.2,0-0.4,0-0.7,0.1C179.8,243.9,175.3,243.5,171.7,240.3z M166.9,249.7c4.3,0.6,7.6,3.7,9.7,7.3c-5.8-2-11.3-2.5-16.5-1.8
		C159.8,250.9,162.9,249.1,166.9,249.7z M145.9,248.4c4.9-1.4,9.1,3.4,10.9,7.4c-4.3,1-8.5,2.7-12.6,5
		C142.3,256.7,140.3,250,145.9,248.4z M127.4,256.8c3.8-3.9,10.6,2.6,13.6,5.8c-3.8,2.3-7.5,5-11.1,7.9
		C127.3,266.8,123.8,260.5,127.4,256.8z M114.7,267.3c3.3-3.4,9.6,2.4,12.5,5.3c-3.3,2.7-6.6,5.4-9.9,8.1
		C114.8,277.2,111.2,270.9,114.7,267.3z M101.2,278.7c3.5-4.1,10.2,1.4,13.3,4.3c-3.9,3.1-7.8,6-11.8,8.4
		C100.4,287.8,98.1,282.3,101.2,278.7z M90.2,303.8c-4.2-0.9-6.8-5.3-5.6-9.4c1.9-6.8,11.1-5,15.1-1.2c-2,1.1-4.1,2.1-6.1,2.9
		c-1.5,0.6-1.7,2.6,0,3c2.1,0.6,4.1,1.4,6.1,2.4C96.8,303.8,93.7,304.6,90.2,303.8z M100.9,315.7c-2.9-3.5-0.6-8.9,1.6-12.5
		c3.5,2,6.9,4.5,10.1,6.9c0.7,0.5,1.4,1,2,1.6C111.5,314.6,104.7,320.2,100.9,315.7z M114.8,326.9c-4.4-3.5-0.4-10.1,2.3-13.3
		c3.5,2.7,6.9,5.5,10.4,8.2c0,0,0,0,0,0C124.9,325.5,119.5,330.6,114.8,326.9z M127.9,337.2c-4.3-3.3-0.2-10.2,2.1-13.6
		c0.9,0.7,1.9,1.4,2.8,2.1c2.9,2.1,5.9,3.9,8.9,5.6c0,0,0,0-0.1,0.1C138.8,334.7,132.7,340.9,127.9,337.2z M146.4,344.6
		c-6.4-0.4-3.9-8-2.2-11.5c0.1-0.1,0.1-0.3,0.1-0.4c4,2,8.2,3.5,12.5,4.5C155.2,341.4,151.2,344.9,146.4,344.6z M167.1,343.8
		c-4.4,0.7-7.2-2-6.9-6.1c5.4,0.8,11,0.6,16.7-0.8C174.6,340.5,171.4,343.2,167.1,343.8z M172.1,355.9c3.4-2.5,7.9-2.6,11.9-1.6
		c0,0,0.1,0.1,0.1,0.1c-5.5,2.6-9.8,6.2-13,10.3C168,361.9,168.6,358.5,172.1,355.9z M156.2,370c2.4-4.6,8.8-4,12.9-2.3
		c-2.4,3.8-4.1,8-5.5,12.5C159.3,378.4,153.4,375.1,156.2,370z M149.1,389.4c-0.5-5.8,9.1-6.1,13.6-5.9c-1,4.4-1.8,8.9-2.3,13.6
		C156,396.3,149.5,394.4,149.1,389.4z M147.5,405.6c-0.1-4.8,8.3-5.2,12.5-5.2c-0.5,4.3-0.9,8.6-1.3,12.9
		C154.4,412.5,147.6,410.5,147.5,405.6z M146,423.1c-0.4-5.5,8.1-6.3,12.3-6.4c-0.6,5-1.3,9.8-2.4,14.4
		C151.7,430.1,146.4,427.8,146,423.1z M115.4,478.4c-4-6.1,9.9-12.9,17.2-16C129.1,469.8,120.1,485.5,115.4,478.4z M149.1,449.4
		c-4.1-1.5-5-5.9-3.4-9.6c1.7-3.7,5.5-5.5,9.3-5.4c-0.7,2.3-1.4,4.5-2.4,6.6c-0.7,1.5,0.8,2.8,2.2,2c1.9-1,3.8-1.9,5.8-2.6
		C160.2,446.2,155.4,451.7,149.1,449.4z M172.3,449.6c-4.7,0.3-7.2-6.2-8.1-10.2c4.5-1.2,9.2-1.9,13.7-2.4c0.2,0,0.4-0.1,0.7-0.1
		C178.5,441.1,177.9,449.2,172.3,449.6z M189.7,447.6c-5.6,0.7-7.5-7.1-7.7-11.2c4.3-0.5,8.7-1,13-1.6c0,0,0,0.1,0,0.1
		C195.7,439.3,195.5,447,189.7,447.6z M206.5,445.7c-5.5,1-7.7-7.2-8.4-11.3c1.9-0.3,3.8-0.6,5.7-0.9c2.7-0.5,5.3-1.1,7.8-1.9
		c0,0.1,0,0.1,0,0.2C212,435.9,212.1,444.6,206.5,445.7z M224.5,437.8c-4.6,4.5-8.4-3.1-9.6-6.7c-0.1-0.2-0.2-0.3-0.3-0.5
		c4.2-1.4,8.2-3.3,11.8-5.6C228.4,429.3,227.9,434.5,224.5,437.8z M240.9,411.1c1.4,4.4,1.1,9-2.1,12.6c-2.9,3.2-7,2.7-9.5-0.5
		c4.6-3.4,8.5-7.6,11.5-12.8c0,0,0,0,0.1,0C240.9,410.6,240.9,410.8,240.9,411.1z M248.6,411.5C248.6,411.5,248.6,411.4,248.6,411.5
		c1.7-2.8,3.3-5.6,4.9-8.4c0-0.1,0-0.1,0.1-0.2c0.8,0.4,1.6,0.6,2.4,0.9c-0.9,3.1-1.7,6.2-2.6,9.4c-1.5-0.4-3-0.9-4.5-1.6
		C248.8,411.5,248.7,411.5,248.6,411.5z M250.6,428.1c0.3-4.5,3.7-8.1,7.4-10.2c-2.2,5.9-2.7,11.5-2.1,16.8
		C252.2,434.7,250.3,432.1,250.6,428.1z M249.4,448.8c-1.4-4.9,3.1-9.1,7.2-10.8c1,4.4,2.8,8.7,5.1,12.9
		C257.5,452.7,251.1,454.3,249.4,448.8z M257.8,467.2c-3.5-4.2,2-10.2,5.6-13.4c2.4,3.8,5.1,7.6,8,11.3
		C267.7,467.7,261.2,471.2,257.8,467.2z M268.4,480c-3-3.7,2-9.3,5-12.3c2.7,3.4,5.5,6.8,8.3,10.1
		C278.2,480.1,271.5,483.9,268.4,480z M279.8,493.6c-4.1-3.5,1-10.1,3.9-13.2c3.1,4,6.1,7.9,8.6,12
		C288.7,494.6,283.4,496.7,279.8,493.6z M300,552.7c-1.7,3.3-4.6,1.2-5.8-0.8c-0.8-1.4-0.8-3.3-0.8-4.8c0-3,0.8-6,1.5-8.9
		c0.7-2.6,1.6-5.1,2.6-7.6C300.3,537.4,303.3,546.4,300,552.7z M304.8,504.8c-0.9,4.2-5.4,7-9.5,5.4c-6.2-2.4-5-10.9-1.3-15
		c1.1,2.1,2.1,4.2,3,6.3c0.6,1.5,2.7,1.3,3.2-0.2c0.6-2,1.3-4,2.2-5.9C304.6,498,305.5,501.2,304.8,504.8z M317.2,493.5
		c-3.1,3.9-9.8,0.7-13.2-1.5c2.3-4.3,5.2-8.3,8.2-12.2C315,482.8,320.6,489.2,317.2,493.5z M328.4,479.5c-2.9,5.7-10.9,0.6-13.9-2
		c-0.1-0.1-0.1-0.1-0.2-0.1c2.8-3.4,5.6-6.7,8.3-10.1C326.2,469.9,330.8,474.6,328.4,479.5z M338.7,466.4c-2.5,5.5-11.2,0.4-14-1.7
		c0,0,0,0,0,0c0.6-0.7,1.1-1.5,1.6-2.2c2.2-3,4.2-6.1,6-9.3c0,0,0,0,0,0C335.6,456,341,461.4,338.7,466.4z M345.5,447.5
		c0.6,7.2-7.4,5-11.3,3c-0.2-0.1-0.4-0.1-0.6-0.2c2-4,3.5-8.1,4.5-12.4C342.1,439.7,345.1,443.1,345.5,447.5z M345.7,428
		c0.4,4.4-2.7,7.1-6.9,6.7c0.9-5.4,0.7-11-0.7-16.7c0.2,0,0.3,0,0.5-0.1C342.4,420.1,345.3,423.5,345.7,428z M343.5,413.6
		c-0.1,0-0.2,0.1-0.2,0.1c0,0,0,0,0-0.1c-0.8-3.1-1.6-6.3-2.4-9.4c0-0.1-0.1-0.2-0.1-0.3c0.7-0.3,1.4-0.6,2.1-1c0,0,0,0,0,0
		c1.6,2.9,3.3,5.7,4.9,8.6C346.4,412.3,345,413,343.5,413.6z M356.5,424.1c-3.7-3.2-3.8-8.7-2.5-13c0.1-0.1,0.2-0.1,0.2-0.2
		c3,5.2,6.8,9.4,11.3,12.7C363,426.6,359.7,426.9,356.5,424.1z M370.1,437.8c-3.4-3-3.5-8.4-1.9-12.4c3.7,2.4,7.8,4.2,12.1,5.7
		c-0.2,0.2-0.3,0.4-0.4,0.6C378.5,436.1,375,442.2,370.1,437.8z M388.3,446.2c-5.7-0.8-5.5-10.1-5.2-14.1c3.5,1.1,7.2,1.9,10.9,2.6
		c0.9,0.2,1.8,0.3,2.6,0.4C396,439.3,393.9,447,388.3,446.2z M404.9,448.3c-5.6-0.7-5.7-8.7-5-12.8c4.3,0.5,8.7,0.9,13.1,1.4
		c0,0.1,0,0.2,0,0.3C412.6,441.6,410.7,449,404.9,448.3z M422.7,450.4c-5.7,0.4-6.4-9.3-6.5-13.1c4.9,0.6,9.8,1.5,14.4,2.9
		C429.6,444.4,427.5,450,422.7,450.4z M479.3,481.5c-4.2,5.2-11.7-7.3-13.2-9.9c-1.3-2.2-2.4-4.6-3.4-6.9c1.9,0.9,3.7,1.8,5.5,2.7
		C471.6,469.3,483.6,476.2,479.3,481.5z M449.7,446.4c-0.9,4.2-6.1,5.3-9.6,4c-3.8-1.4-5.8-5.1-6.1-8.9c2,0.8,3.9,1.6,5.8,2.7
		c1.1,0.6,3-0.7,2.4-1.9c-0.9-2.1-1.7-4.4-2.3-6.7C445.5,435.7,451.1,440.2,449.7,446.4z M448.9,424.1c0.3,4.7-5.9,7.1-9.8,8
		c-1-4.6-1.7-9.5-2.2-14.5C441.3,417.8,448.6,418.8,448.9,424.1z M447.5,406.4c1.4,4.8-7.3,7.2-11,7.9c-0.4-4.3-0.8-8.7-1.2-13
		C439.7,401.3,446.2,401.8,447.5,406.4z M446.1,389.7c1.6,5.2-6.9,7.6-11.1,8.4c-0.5-4.7-1.2-9.2-2.2-13.6
		C437.5,384.2,444.5,384.6,446.1,389.7z M439,370.7c3.7,5-2.8,8.7-7.1,10.3c-1.3-4.6-3-8.9-5.4-12.7
		C430.7,366.6,436.1,366.8,439,370.7z M423.3,356.7c3.4,2.3,4.4,6.1,1.3,8.9c-3.2-4.3-7.5-7.9-13.2-10.6
		C415.5,354,419.7,354.3,423.3,356.7z M428.3,345.5c-4.6-0.3-7.9-3.8-9.9-7.6c-0.1-0.2-0.2-0.3-0.3-0.4c5.8,1.6,11.5,1.9,17.1,1
		C435.8,343,432.8,345.8,428.3,345.5z M448.8,345.5c-4.6,0.3-8.6-3.6-10.2-7.6c4.2-0.9,8.4-2.5,12.4-4.4c0,0.2,0.1,0.5,0.2,0.7
		C453.1,338.1,455.2,345.1,448.8,345.5z M467.7,338.3c-4.1,4.2-11.4-3.1-13.7-5.9c-0.1-0.1-0.2-0.2-0.3-0.3c2.3-1.2,4.5-2.5,6.6-4
		c1.7-1.1,3.3-2.3,5-3.5C467.8,328.2,471.5,334.5,467.7,338.3z M480.5,328.4c-4.5,3.5-10.2-2.3-12.6-5.7c0,0,0,0,0,0
		c3.4-2.6,6.7-5.5,10.1-8.2c0.1,0.1,0.1,0.2,0.2,0.3C481.1,318,485.2,324.8,480.5,328.4z M494.6,317.3c-3.7,4.4-11.2-2.3-13.9-4.9
		c3.9-3,8-5.8,12.2-8.1C495.2,308,497.7,313.6,494.6,317.3z M511.2,300.3c-1.8,7.1-10.4,5.9-14.9,2.4c2-0.9,4-1.6,6-2.2
		c1.2-0.3,1.8-2.3,0.4-2.9c-2.2-0.9-4.4-2-6.6-3.2c2.6-2.5,5.8-3.5,9.6-2.8C510,292.4,512.2,296.3,511.2,300.3z M552.5,303
		c-1.3,0.6-2.9,0.5-4.3,0.5c-3,0-6-0.8-8.8-1.6c-2.6-0.7-5.3-1.7-7.8-2.7c7.1-2.9,16.7-6.2,22.6-1.9
		C556.9,299.2,554.6,302.1,552.5,303z"/>
	<path class="st0" d="M568.1,294.8c-2.6-0.1-4.6,2.3-4.8,4.7c-0.1,2.5,1.9,4.1,4.1,4.5c0.2,0,0.3,0.1,0.5,0.1c0.1,0,0.3,0,0.4-0.1
		c2.4-0.3,4.2-2.2,4.3-4.7C573,296.7,570.6,295,568.1,294.8z M568.1,298c1.8-0.1,1.9,2.9,0,3C566.3,300.9,566.2,298,568.1,298z"/>
	<path class="st0" d="M579.4,296.8c-1.6-0.2-3.1,1-3.2,2.6c-0.1,1.3,0.8,2.5,2,2.7c0.2,0.1,0.4,0.1,0.7,0.1c1.4-0.1,2.7-1.1,2.8-2.6
		C581.8,298.2,580.8,296.9,579.4,296.8z"/>
	<path class="st0" d="M27.8,293.1c-0.2,0-0.3-0.1-0.5-0.1c-0.1,0-0.3,0-0.4,0.1c-2.4,0.3-4.2,2.2-4.3,4.7c-0.1,2.7,2.2,4.4,4.7,4.5
		c2.6,0.1,4.6-2.3,4.7-4.7C32,295.1,30,293.4,27.8,293.1z M27.2,299.2c-1.8,0.1-1.9-2.9,0-3C29,296.3,29.1,299.1,27.2,299.2z"/>
	<path class="st0" d="M17.1,295c-0.2-0.1-0.4-0.1-0.7-0.1c-1.4,0.1-2.7,1.1-2.8,2.6c-0.1,1.4,0.9,2.7,2.3,2.8c1.6,0.1,3.1-1,3.2-2.6
		C19.3,296.4,18.4,295.3,17.1,295z"/>
	<path class="st0" d="M297.5,562.4c-2.5-0.1-4.4,2-4.7,4.3c0,0.1-0.1,0.3,0,0.4c0,0.2,0,0.4,0.1,0.6c0.4,2.3,2.2,3.8,4.6,4
		c2.6,0.1,4.6-2.3,4.7-4.7C302.3,564.2,299.9,562.5,297.5,562.4z M296,566.9c0.1-2,2.8-1.6,2.9,0.2C299,569.1,296.1,568.7,296,566.9
		z"/>
	<path class="st0" d="M297.4,575.1c-1.3,0.1-2.2,0.8-2.6,1.9c-0.2,0.2-0.2,0.5-0.2,0.9c0,0.2,0,0.5,0.1,0.6c0.3,1.2,1.3,2.1,2.6,2
		c1.6-0.1,2.7-1.3,2.8-2.8C300.3,576.3,298.8,575,297.4,575.1z"/>
	<path class="st0" d="M295.8,33.2c2.5,0.1,4.4-2,4.7-4.3c0-0.1,0.1-0.3,0-0.4c0-0.2,0-0.4-0.1-0.6c-0.4-2.3-2.2-3.8-4.6-4
		c-2.6-0.1-4.6,2.3-4.7,4.7C291,31.3,293.4,33.1,295.8,33.2z M297.3,28.7c-0.1,2-2.8,1.6-2.9-0.2C294.3,26.4,297.2,26.8,297.3,28.7z
		"/>
	<path class="st0" d="M295.9,20.4c1.3-0.1,2.2-0.8,2.6-1.9c0.2-0.2,0.3-0.6,0.2-0.9c0-0.2,0-0.5-0.1-0.6c-0.3-1.2-1.3-2.1-2.6-2
		c-1.6,0.1-2.7,1.3-2.8,2.8C293,19.3,294.5,20.6,295.9,20.4z"/>
	<path class="st0" d="M484.9,487.2c-1.8,1.6-1.7,4.3-0.4,6.1c0.1,0.2,0.2,0.3,0.3,0.5c0.1,0.1,0.3,0.3,0.4,0.3
		c1.9,1.4,4.4,1.1,6.2-0.5c2-1.8,1.7-4.7,0-6.6C489.8,485.1,486.7,485.6,484.9,487.2z M489.3,491.6c-0.6,0.6-1.5,0.3-2-0.2
		c-1.3-1.5,0.6-3.3,2-1.9C489.9,490,489.8,491,489.3,491.6z"/>
	<path class="st0" d="M494.1,496.2c-1,0.8-1.3,2.4-0.6,3.4c0.1,0.2,0.2,0.4,0.4,0.5c1.1,1,2.7,0.9,3.8,0c1.1-0.9,1.3-2.6,0.4-3.7
		C497.1,495.2,495.3,495.1,494.1,496.2z"/>
	<path class="st0" d="M110.4,109.9c1.8-1.6,1.7-4.3,0.4-6.1c-0.1-0.2-0.2-0.3-0.3-0.5c-0.1-0.2-0.3-0.3-0.4-0.3
		c-1.9-1.4-4.4-1.1-6.2,0.5c-2,1.8-1.7,4.7,0,6.6C105.5,112,108.6,111.5,110.4,109.9z M106,105.5c0.6-0.6,1.5-0.3,2,0.2
		c1.3,1.5-0.6,3.3-2,1.9C105.4,107.1,105.5,106.1,106,105.5z"/>
	<path class="st0" d="M101.2,101c1-0.8,1.3-2.4,0.6-3.4c-0.1-0.2-0.2-0.4-0.4-0.5c-1.1-1-2.7-0.9-3.8,0c-1.1,0.9-1.3,2.6-0.4,3.7
		C98.2,102,100,102,101.2,101z"/>
	<path class="st0" d="M104,484.5c-0.1,0.1-0.3,0.2-0.4,0.3c-0.1,0.1-0.2,0.2-0.3,0.4c-1.5,1.9-1.4,4.4,0.3,6.2
		c1.8,2,4.9,1.4,6.7-0.2c2-1.8,1.7-4.7,0-6.6C108.6,482.8,105.8,483.2,104,484.5z M107.9,489.2c-1.2,1.4-3.2-1-2-2.3
		C107.3,485.6,109.1,487.9,107.9,489.2z"/>
	<path class="st0" d="M97.9,493.4c-0.2,0.1-0.5,0.2-0.7,0.4c-0.2,0.2-0.3,0.4-0.4,0.6c-0.6,1.1-0.6,2.4,0.4,3.3
		c1.2,1.1,2.8,0.8,4-0.2c1.1-0.9,1.1-2.9,0-3.9C100.2,492.8,98.9,492.8,97.9,493.4z"/>
	<path class="st0" d="M492,110.6c0.1-0.1,0.3-0.2,0.4-0.3c0.1-0.1,0.2-0.2,0.3-0.4c1.5-1.9,1.4-4.3-0.3-6.2c-1.8-2-4.9-1.4-6.7,0.2
		c-2,1.8-1.7,4.7,0,6.6C487.4,112.3,490.2,111.9,492,110.6z M488.1,105.9c1.2-1.4,3.2,1,2,2.3C488.7,109.5,486.9,107.2,488.1,105.9z
		"/>
	<path class="st0" d="M498.1,101.7c0.3-0.1,0.5-0.2,0.7-0.4c0.2-0.2,0.3-0.4,0.4-0.6c0.6-1.1,0.6-2.4-0.4-3.3
		c-1.2-1.1-2.8-0.8-4,0.2c-1.1,0.9-1.1,2.9,0,3.9C495.8,102.3,497,102.3,498.1,101.7z"/>
</g>
</svg>
