<?xml version="1.0" encoding="UTF-8" standalone="no"?>
<svg
   xmlns:dc="http://purl.org/dc/elements/1.1/"
   xmlns:cc="http://creativecommons.org/ns#"
   xmlns:rdf="http://www.w3.org/1999/02/22-rdf-syntax-ns#"
   xmlns:svg="http://www.w3.org/2000/svg"
   xmlns="http://www.w3.org/2000/svg"
   version="1.1"
   id="svg2"
   xml:space="preserve"
   width="1028.9067"
   height="434.46667"
   viewBox="0 0 1028.9067 434.46667"><metadata
     id="metadata8"><rdf:RDF><cc:Work
         rdf:about=""><dc:format>image/svg+xml</dc:format><dc:type
           rdf:resource="http://purl.org/dc/dcmitype/StillImage" /><dc:title></dc:title></cc:Work></rdf:RDF></metadata><defs
     id="defs6" /><g
     id="g10"
     transform="matrix(1.3333333,0,0,-1.3333333,0,434.46667)"><g
       id="g12"
       transform="scale(0.1)"><path
         d="m 1890.91,1448.78 c 119.38,0 209.37,33.99 209.37,120.3 0,62.45 -45.92,94.58 -94.59,94.58 -45.91,0 -87.23,-26.63 -89.99,-84.49 18.37,-9.18 43.16,-24.78 43.16,-60.59 0,-33.99 -22.95,-60.62 -57.85,-60.62 -236.91,0 -315.88,622.6 -555.55,622.6 -33.06,0 -75.3,-10.1 -123.97,-33.06 l 74.38,83.56 c 88.16,98.26 220.39,219.47 337.93,219.47 v 6.43 h -269.06 v -6.43 c 112.03,0 0.92,-127.65 -75.3,-213.04 l -80.8,-90.91 v 145.09 c 0,109.27 0.92,158.86 81.72,158.86 v 6.43 H 920.301 v -6.43 c 99.169,0 99.169,-47.75 99.169,-158.86 v -312.21 c 0,-107.44 0,-158.86 -99.169,-158.86 v -6.43 h 370.059 v 6.43 c -80.8,0 -81.72,49.57 -81.72,158.86 v 154.26 c 8.26,4.59 17.44,6.43 25.71,6.43 118.46,0 181.82,-591.37 656.56,-591.37 m 39.48,753.91 -264.47,-70.71 1.84,-6.43 c 78.05,18.37 90.91,-6.43 90.91,-67.95 v -220.38 c 0,-98.26 -8.26,-116.62 -79.89,-116.62 v -6.43 h 348.02 v 6.43 c -93.66,0 -98.25,18.36 -98.25,116.62 v 221.3 c 17.45,54.18 50.5,121.21 101.01,121.21 25.71,0 38.57,-28.47 38.57,-55.09 0,-28.47 -14.7,-59.69 -45.92,-67.04 2.76,-52.34 40.41,-77.13 81.73,-77.13 59.69,0 100.09,54.17 100.09,108.35 0,75.3 -67.03,113.87 -129.48,113.87 -87.23,0 -124.88,-63.36 -146.92,-124.89 z m 629.93,-488.52 v 6.43 c -71.63,0 -79.89,18.36 -79.89,116.62 v 365.47 l -262.63,-70.71 1.84,-6.43 c 78.05,18.37 90.91,-6.43 90.91,-67.95 v -220.38 c 0,-98.26 -8.27,-116.62 -79.89,-116.62 v -6.43 z m -165.29,725.43 c -54.18,0 -99.18,-44.08 -99.18,-98.25 0,-55.1 45,-100.09 99.18,-100.09 55.09,0 99.17,44.99 99.17,100.09 0,55.09 -44.08,98.25 -99.17,98.25 m 212.1,-730.02 67.96,17.45 c 50.5,-11.94 104.68,-19.29 147.84,-19.29 128.55,0 225.89,67.04 225.89,166.21 0,180.9 -320.47,153.35 -320.47,258.03 0,34.9 35.81,63.36 89.07,63.36 67.03,0 168.96,-44.08 179.98,-155.19 h 6.43 l -9.19,161.62 -60.6,-16.53 c -32.14,10.1 -72.55,17.45 -112.95,17.45 -95.5,0 -224.06,-40.41 -224.06,-153.36 0,-180.89 326.91,-169.87 326.91,-269.96 0,-35.82 -42.24,-64.28 -101.01,-64.28 -64.28,0 -198.35,34.88 -219.47,190.08 h -6.43 z m 1111.1,4.59 v 6.43 c -71.63,0 -79.89,18.36 -79.89,116.62 v 230.48 c 0,93.67 -32.14,134.99 -106.52,134.99 -56.02,0 -112.03,-24.81 -202.94,-99.17 l 2.76,99.17 -264.47,-70.71 1.84,-6.43 c 78.05,18.37 90.91,-6.43 90.91,-67.95 v -220.38 c 0,-98.26 -8.27,-116.62 -79.89,-116.62 v -6.43 h 300.27 v 6.43 c -49.58,0 -50.5,40.4 -50.5,98.25 v 276.4 c 27.55,23.87 58.77,35.81 80.81,35.81 53.26,0 57.85,-49.58 57.85,-87.23 v -224.98 c 0,-73.47 -0.92,-98.25 -49.59,-98.25 v -6.43 z m 337.92,305.78 c -103.77,-71.62 -310.38,-46.83 -310.38,-191.92 0,-78.97 55.1,-120.29 141.42,-120.29 72.54,0 143.25,36.73 169.88,101.01 8.26,-61.52 43.15,-101.01 95.5,-101.01 66.11,0 118.45,33.98 160.69,69.79 l -3.67,4.59 c -17.45,-11.95 -28.47,-14.69 -40.4,-14.69 -42.24,0 -42.24,52.34 -42.24,82.64 v 212.12 c 0,106.52 -108.35,140.5 -213.04,140.5 -84.47,0 -237.83,-14.69 -237.83,-126.72 0,-59.69 42.24,-86.32 86.31,-86.32 41.33,0 78.97,24.79 81.73,77.13 -19.27,8.27 -32.14,32.14 -32.14,53.26 0,45 39.49,74.38 76.22,74.38 67.95,0 67.95,-61.53 67.95,-119.37 z m 0,-178.14 c 0,-33.98 -21.12,-67.95 -56.02,-67.95 -51.42,0 -57.85,56.01 -57.85,90.91 0,101.92 48.67,105.6 113.87,147.84 v -170.8"
         style="fill:#392e1a;fill-opacity:1;fill-rule:nonzero;stroke:none"
         id="path14" /><path
         d="m 3442.87,1388.57 h -134.09 v -4.82 c 33.01,0 68.08,-18.57 31.63,-101.76 l -64.64,-147.86 -78.39,147.16 c -35.76,67.4 -11,102.46 19.94,102.46 v 4.82 h -194.6 v -4.82 c 16.5,0 48.14,-17.88 89.39,-102.46 l 114.84,-236.55 h 19.25 l 102.46,235.18 c 36.45,83.88 73.58,103.83 94.21,103.83 z m 169.15,-350.7 c 82.52,0 180.85,52.25 180.85,176.72 0,123.77 -98.33,180.16 -180.85,180.16 -83.89,0 -179.47,-56.39 -179.47,-180.16 0,-124.47 95.58,-176.72 179.47,-176.72 m 0,4.81 c -62.57,0 -95.58,49.51 -95.58,171.91 0,121.71 33.01,175.36 95.58,175.36 61.21,0 96.27,-53.65 96.27,-175.36 0,-122.4 -35.06,-171.91 -96.27,-171.91 m 328.69,552.18 h -130.65 v -4.82 c 18.57,0 53.64,-15.12 53.64,-83.21 v -372.7 c 0,-69.45 -37.13,-84.58 -55.01,-84.58 v -4.81 h 185.66 v 4.81 c -18.56,0 -53.64,17.19 -53.64,85.28 z m 132.02,-450.4 c 0,14.43 4.13,26.12 11.01,35.07 35.74,-25.45 88.01,-35.07 134.09,-35.07 79.07,0 180.85,28.87 180.85,122.39 0,91.45 -98.34,126.52 -176.73,127.9 2.06,81.14 82.51,110.02 132.72,99.72 -19.26,-4.83 -33.7,-19.94 -33.7,-37.83 0,-22.01 20.63,-39.89 46.07,-39.89 25.45,0 46.08,17.88 46.08,39.89 -0.69,93.52 -195.29,61.88 -198.05,-61.89 -79.77,-0.68 -176.72,-36.45 -176.72,-127.9 0,-36.45 15.13,-63.26 38.51,-82.52 -27.51,-16.49 -41.26,-42.63 -41.26,-60.51 0,-27.51 15.12,-45.39 37.82,-58.45 -20.63,-16.5 -32.32,-40.56 -32.32,-59.83 -0.69,-52.938 64.63,-103.13 180.85,-103.13 107.27,0 202.86,26.809 202.86,99.01 0,133.41 -352.08,44.01 -352.08,143.04 m 145.1,245.49 c 61.88,0 96.95,-31.65 96.95,-123.1 0,-92.15 -35.07,-117.59 -96.95,-117.59 -60.52,0 -93.52,25.44 -93.52,117.59 0,91.45 33,123.1 93.52,123.1 m 15.8,-480.68 c -99.7,0 -186.34,32.332 -185.65,97.66 0,15.81 11.69,37.81 33,55.01 85.27,-40.58 261.31,-20.64 261.31,-92.831 0,-44.699 -72.2,-59.839 -108.66,-59.839 m 605.82,479.3 h -134.09 v -4.82 c 33.01,0 68.76,-17.18 31.62,-101.76 l -65.32,-148.54 -77.01,147.84 c -36.45,70.14 -11.01,102.46 19.94,102.46 v 4.82 H 4419.3 v -4.82 c 16.5,0 48.82,-17.88 89.39,-102.46 l 119.65,-246.18 -8.94,-22 c -19.25,-44.7 -48.13,-55.688 -75.64,-57.079 2.75,4.821 4.13,10.321 4.13,16.508 0,21.313 -20.63,39.191 -46.07,39.191 -25.45,0 -46.07,-17.878 -46.07,-39.191 0,-22.008 20.62,-39.891 46.07,-39.891 48.82,0 99.71,17.204 126.52,79.082 l 116.9,268.19 c 37.13,85.26 73.58,103.83 94.21,103.83 v 4.82"
         style="fill:#392e1a;fill-opacity:1;fill-rule:nonzero;stroke:none"
         id="path16" /><path
         d="m 7645.41,732.879 c -46.57,17.941 -114.47,45.34 -202.07,77.25 -87.38,32.492 -194.43,69.66 -318.69,108.082 -31.17,9.238 -63.11,19.617 -96.45,28.769 -33.34,9.192 -67.63,18.649 -102.82,28.348 -35.39,9.024 -71.88,17.543 -109.17,26.542 -18.61,4.7 -37.59,8.76 -56.83,12.61 -19.22,3.98 -38.65,8 -58.29,12.07 -12.07,2.42 -24.41,4.74 -36.66,7.09 v 96.9 h -99.49 v 20.44 h -0.05 v 247.49 h 15.22 c 5.48,0 9.93,7.18 9.93,16.04 0,8.87 -4.45,16.05 -9.93,16.05 h -15.22 -12.77 -53.32 v 464.6 h 4.56 v 14.66 h 5.87 v 150.91 c -0.86,31.2 -1.92,59.26 22.79,59.26 0,3.98 8.24,37.09 8.24,37.09 l 135.79,-3.83 v 18.45 l -171.04,77.98 v 74.04 h -0.85 c 7.74,0 14.02,9.73 14.02,21.74 0,12.01 -6.28,21.74 -14.02,21.74 h -19.58 v 36.62 c -10.63,-0.08 -23.28,-0.23 -33.08,-0.03 98.02,316.1 -179.01,463.01 -257.71,451.61 23.77,3.45 60.67,32.36 -4.57,30.34 -54.16,-1.68 -49.39,81.03 -127.66,109.2 3.41,2.63 5.66,5.59 5.9,8.96 -44.3,13.66 -44.79,27.33 -44.79,27.33 0,0 26.58,6.55 26.58,23.07 0,15.18 -26.35,23.06 -26.35,23.06 v 13.32 c 1.77,0 20.31,4.15 19.95,14.13 -8.8,31.4 -40.92,153.65 -40.92,153.65 0,0 -32.12,-122.25 -40.92,-153.65 -0.37,-9.98 18.18,-14.13 19.94,-14.13 v -13.32 c 0,0 -26.34,-7.88 -26.34,-23.06 0,-16.52 26.58,-23.07 26.58,-23.07 0,0 -0.5,-13.67 -44.79,-27.33 0.24,-3.37 2.49,-6.33 5.89,-8.96 -78.25,-28.17 -73.49,-110.88 -127.65,-109.2 -65.25,2.02 -28.34,-26.89 -4.57,-30.34 -78.7,11.4 -355.73,-135.51 -257.71,-451.61 -9.8,-0.2 -22.45,-0.05 -33.09,0.03 v -36.62 h -19.57 c -7.74,0 -14.02,-9.73 -14.02,-21.74 0,-12.01 6.28,-21.74 14.02,-21.74 h -0.85 v -74.04 l -171.04,-77.98 v -18.45 l 135.79,3.83 c 0,0 8.24,-33.11 8.24,-37.09 24.71,0 23.65,-28.06 22.79,-59.26 v -150.91 h 5.87 v -14.66 h 4.56 v -464.6 h -53.32 -12.77 -15.22 c -5.48,0 -9.93,-7.18 -9.93,-16.05 0,-8.86 4.45,-16.04 9.93,-16.04 h 15.22 v -247.49 h -0.05 v -20.44 h -99.49 V 1011.85 C 5229.89,978.219 5121.25,937.5 5013.28,894.09 4818.07,815.051 4623.87,727.07 4429.27,641.18 c -60.61,-27.051 -121.26,-53.891 -181.93,-80.379 -20.46,0.469 -41.03,1.07 -61.82,1.91 -152.31,5.508 -312.49,20.219 -477.3,42.051 -164.75,22.476 -334.01,52.769 -504.69,90.047 -85.4,18.312 -171.22,38.211 -257.11,59.269 -42.97,10.731 -86.03,21.481 -129.13,32.242 l -65.17,16.121 -65.53,14.887 c -87.52,19.301 -175.87,34.91 -264.27,47.832 -88.47,12.578 -177.09,21.641 -265.24,27.762 -176.39,11.617 -350.95,7.566 -518.55,-8.91 C 1471.01,866.352 1310.55,835.77 1161.91,794.449 1013.22,753.219 876.254,702.34 753.383,648 630.758,592.961 522.082,534.879 428.66,478.871 c -23.211,-14.23 -45.68,-28 -67.359,-41.301 -21.258,-13.949 -41.758,-27.398 -61.449,-40.308 -9.821,-6.481 -19.45,-12.821 -28.875,-19.032 -9.239,-6.48 -18.266,-12.832 -27.098,-19.031 C 226.242,346.809 209.41,334.992 193.438,323.77 130.289,277.789 81.6523,240.512 49.6797,213.691 17.2813,187.371 0,173.332 0,173.332 c 0,0 18.1211,12.938 52.0898,37.188 33.7422,24.628 84.4302,58.921 149.0702,101.98 16.41,10.422 33.692,21.398 51.82,32.922 9.047,5.75 18.321,11.637 27.797,17.66 9.657,5.727 19.512,11.59 29.571,17.566 20.14,11.922 41.105,24.321 62.843,37.192 22.118,12.191 45.028,24.82 68.711,37.859 95.078,51.27 204.094,105.949 327.039,155.949 122.539,50.793 258.789,97.172 405.729,134.883 146.7,38.797 304.82,65.539 469.33,81.828 82.35,7.243 166.28,12.789 251.41,13.532 85.1,0.847 171.27,-1.102 257.97,-6.61 86.69,-5.59 173.92,-14.07 261.09,-26.043 87.14,-12.179 174.16,-27.668 260.84,-45.058 86.67,-17.18 172.3,-39.45 259.1,-59.86 86.51,-20.468 172.93,-39.781 259.02,-57.511 172.22,-35.278 343.14,-63.477 509.42,-83.918 83.2,-9.789 165.18,-18.121 245.62,-23.832 C 4025.07,534.082 4100.1,530 4173.4,528.73 4064.26,481.711 3955.08,436.191 3845.97,393.57 3651.5,317.91 3457.94,249.332 3266.95,195.691 3076.04,142.121 2888.58,100.641 2708.63,75.6797 2618.69,63.082 2530.74,54.5 2445.47,48.7109 c -85.3,-5.3593 -167.91,-7.0507 -247.23,-6.332 -79.28,1.7305 -155.28,5.4297 -227.33,12.1016 -36.1,2.5898 -71.03,7.4179 -105.17,10.8593 -33.94,4.711 -67,9.0313 -98.89,14.0821 -127.53,20.5703 -237.5,46.4371 -326.92,71.7191 -22.44,6.031 -43.35,12.879 -63.22,18.711 -19.83,5.929 -38.54,11.199 -55.61,17.097 -34.23,11.531 -63.74,20.36 -87.04,29.25 -46.89,17.051 -71.9,26.153 -71.9,26.153 0,0 24.54,-10.332 70.55,-29.692 46.23,-18.84 114.44,-45.82 203.31,-74.512 88.84,-28.687 198.44,-58.7886 326.28,-84.2769 127.77,-25.7227 274.21,-44.44141 434.82,-51.49219 80.31,-2.867191 164.1,-3.37891 250.75,-0.25 86.62,3.65234 176.01,11.05079 267.51,21.96089 183.01,21.8204 374.11,59.8321 567.93,112.4412 193.84,52.59 390.93,118.039 587.04,194.321 196.3,75.828 392.37,160.437 587.19,246.668 194.58,86.769 387.99,175.269 581.02,254.269 96.58,39.27 192.99,76.211 289.35,108.633 96.5,31.68 193.02,59.18 289.33,76.358 24.2,4.8 47.62,7.69 71.49,11.25 12.3,1.34 24.57,2.68 36.8,4.01 l 9.18,1 8.52,0.53 18.2,1.15 c 48.48,2.8 96.46,6.67 144.01,9.02 47.63,0.89 94.74,1.78 141.28,2.66 46.55,-0.52 92.54,-2.29 137.94,-3.34 181.46,-8.14 352.51,-28.64 509.08,-55.662 156.58,-27.187 298.85,-60.218 423.78,-93.988 124.97,-33.68 233.03,-66.808 321.4,-96.031 176.81,-58.641 277.85,-92.149 277.85,-92.149 0,0 -24.82,9.622 -71.36,27.649 M 6334.06,1888.58 h 10.65 v 21.24 h -0.1 v 13.31 c 2.45,21.3 9.72,34.87 19.46,37.38 1.78,17.86 22.91,25.68 31.73,25.3 7.67,-0.3 27.45,-9.57 31.78,-25.35 8.96,-2.31 15.82,-13.98 18.79,-32.4 h -0.26 v -35.28 h 4.75 v -462.22 h -116.8 z m -301.87,-5.05 h 16.31 v 26.29 h -0.21 c 3.66,64.51 27.15,105.85 59.9,112.79 12.79,38.27 32,53.41 54.67,54.23 v -0.12 c 22.72,-0.73 41.98,-15.87 54.8,-54.25 32.85,-6.95 56.39,-48.54 59.93,-113.4 v -20.49 h 8.19 v -458.02 h -253.59 z m -314.11,5.05 h 8.19 v 20.49 c 3.54,64.86 27.08,106.45 59.93,113.4 12.82,38.38 32.07,53.52 54.8,54.25 v 0.12 c 22.67,-0.82 41.88,-15.96 54.67,-54.23 32.75,-6.94 56.24,-48.28 59.9,-112.79 h -0.21 v -26.29 h 16.31 v -452.97 h -253.59 z m -165.08,4.2 h 4.75 v 35.28 h -0.26 c 2.97,18.42 9.84,30.09 18.79,32.4 4.33,15.78 24.11,25.05 31.78,25.35 8.82,0.38 29.94,-7.44 31.73,-25.3 9.74,-2.51 17.01,-16.08 19.46,-37.38 v -13.31 h -0.1 v -21.24 h 10.65 V 1430.56 H 5553 v 462.22"
         style="fill:#392e1a;fill-opacity:1;fill-rule:nonzero;stroke:none"
         id="path18" /><path
         d="m 3669.25,1532.16 c -17.63,0 -32.27,-14.34 -32.27,-31.97 0,-17.92 14.64,-32.56 32.27,-32.56 17.93,0 32.27,14.64 32.27,32.56 0,17.93 -14.34,31.97 -32.27,31.97"
         style="fill:#392e1a;fill-opacity:1;fill-rule:nonzero;stroke:none"
         id="path20" /><path
         d="m 3562.35,1532.16 c -17.63,0 -32.27,-14.34 -32.27,-31.97 0,-17.92 14.64,-32.56 32.27,-32.56 17.93,0 32.27,14.64 32.27,32.56 0,17.93 -14.34,31.97 -32.27,31.97"
         style="fill:#392e1a;fill-opacity:1;fill-rule:nonzero;stroke:none"
         id="path22" /></g></g></svg>
